<?xml version="1.0" encoding="UTF-8" standalone="no"?>
<!-- Generator: Adobe Illustrator 23.0.1, SVG Export Plug-In . SVG Version: 6.00 Build 0)  -->

<svg
   xmlns:dc="http://purl.org/dc/elements/1.1/"
   xmlns:cc="http://creativecommons.org/ns#"
   xmlns:rdf="http://www.w3.org/1999/02/22-rdf-syntax-ns#"
   xmlns:svg="http://www.w3.org/2000/svg"
   xmlns="http://www.w3.org/2000/svg"
   xmlns:sodipodi="http://sodipodi.sourceforge.net/DTD/sodipodi-0.dtd"
   xmlns:inkscape="http://www.inkscape.org/namespaces/inkscape"
   version="1.1"
   id="Layer_1"
   x="0px"
   y="0px"
   viewBox="0 0 1084.8101 258.32001"
   xml:space="preserve"
   sodipodi:docname="two_line_lockup-05.svg"
   width="1084.8101"
   height="258.32001"
   inkscape:version="0.92.2 (5c3e80d, 2017-08-06)"><metadata
     id="metadata311"><rdf:RDF><cc:Work
         rdf:about=""><dc:format>image/svg+xml</dc:format><dc:type
           rdf:resource="http://purl.org/dc/dcmitype/StillImage" /><dc:title></dc:title></cc:Work></rdf:RDF></metadata><defs
     id="defs309" /><sodipodi:namedview
     pagecolor="#ffffff"
     bordercolor="#666666"
     borderopacity="1"
     objecttolerance="10"
     gridtolerance="10"
     guidetolerance="10"
     inkscape:pageopacity="0"
     inkscape:pageshadow="2"
     inkscape:window-width="1366"
     inkscape:window-height="706"
     id="namedview307"
     showgrid="false"
     fit-margin-top="0"
     fit-margin-left="0"
     fit-margin-right="0"
     fit-margin-bottom="0"
     inkscape:zoom="0.14791667"
     inkscape:cx="542.41"
     inkscape:cy="136.33"
     inkscape:window-x="-8"
     inkscape:window-y="-8"
     inkscape:window-maximized="1"
     inkscape:current-layer="Layer_1" /><style
     type="text/css"
     id="style2">
	.st0{fill:none;stroke:#FFFFFF;stroke-width:7;}
	.st1{fill:#FFFFFF;}
	.st2{fill:#A51033;}
	.st3{fill:#FFFFFF;stroke:#000000;stroke-width:0.5;stroke-miterlimit:10;}
	.st4{fill:#A51033;stroke:#000000;stroke-width:0.5;stroke-miterlimit:10;}
	.st5{stroke:#000000;stroke-width:0.5;stroke-miterlimit:10;}
</style><g
     id="g304"
     transform="translate(-417.59,-418.01)"><g
       id="g244"><g
         id="g242"><g
           id="g6"><path
             class="st1"
             d="m 473.62,588.37 c 6.28,0 11.37,-5.09 11.37,-11.36 0,-1.88 -0.48,-3.65 -1.29,-5.21 1.49,0.71 3.14,1.13 4.9,1.13 6.28,0 11.37,-5.09 11.37,-11.36 0,-6.27 -5.08,-11.37 -11.37,-11.37 -1.83,0 -3.56,0.5 -5.09,1.27 0.79,-1.55 1.25,-3.25 1.25,-5.11 0,-6.28 -5.09,-11.37 -11.36,-11.37 -2.19,0 -4.27,0.67 -6.01,1.75 0.96,-1.66 1.46,-3.54 1.46,-5.59 0,-6.28 -5.08,-11.36 -11.36,-11.36 -2.17,0 -4.19,0.63 -5.92,1.69 1.01,-1.69 1.61,-3.66 1.61,-5.77 0,-6.27 -5.09,-11.36 -11.36,-11.36 -1.94,0 -3.79,0.56 -5.39,1.42 0.85,-1.59 1.31,-3.33 1.31,-5.26 0,-3.51 -1.59,-7.23 -4.09,-9.84 h -9.22 c 0.62,41.67 12.82,80.13 35.36,113.3 5.62,-0.68 9.99,-5.46 9.99,-11.27 0,-2.07 -0.6,-4.02 -1.56,-5.7 1.61,0.88 3.43,1.37 5.4,1.37 z"
             id="path4"
             inkscape:connector-curvature="0"
             style="fill:#ffffff" /></g><g
           id="g10"><path
             class="st1"
             d="m 568.53,493.26 c 0,-0.98 -0.19,-1.79 -0.5,-2.59 h -2.92 v -0.21 l -78.36,-0.01 v 0.21 h -2.99 c -0.27,0.79 -0.43,1.6 -0.43,2.58 0,6.28 5.09,11.36 11.37,11.37 2.35,0 4.49,-0.71 6.31,-1.93 -1.09,1.74 -1.77,3.81 -1.77,6.01 0,6.28 5.09,11.36 11.36,11.36 2.48,0 4.77,-0.79 6.64,-2.15 -1.17,1.79 -1.86,3.93 -1.86,6.23 0,6.27 5.08,11.36 11.36,11.37 6.27,0 11.37,-5.09 11.37,-11.36 0,-2.3 -0.63,-4.33 -1.81,-6.12 1.65,0.93 3.62,1.57 5.65,1.57 6.28,0 11.36,-5.09 11.36,-11.36 0,-1.71 -0.32,-3.36 -1,-4.82 1.81,1.22 3.07,1.21 5.43,1.21 6.29,0 10.79,-5.08 10.79,-11.36 z"
             id="path8"
             inkscape:connector-curvature="0"
             style="fill:#ffffff" /></g><g
           id="g14"><path
             class="st1"
             d="m 619.24,490.69 c -2.21,2.33 -3.47,5.57 -3.47,8.9 0,1.29 0.23,3.44 0.62,4.57 -1.44,-0.67 -3.02,-1.08 -4.7,-1.08 -6.28,0 -11.37,5.08 -11.37,11.36 0,2.11 0.59,4.07 1.61,5.77 -1.73,-1.06 -3.74,-1.7 -5.92,-1.7 -7.21,0 -11.36,5.75 -11.36,12.65 0,2.05 0.15,2.41 1.11,4.07 -1.73,-1.08 -3.46,-1.51 -5.66,-1.51 -6.27,0 -11.36,6.37 -11.36,12.65 0,1.86 0.22,2.51 1.02,4.06 -1.54,-0.77 -3.03,-0.8 -4.87,-0.8 -6.28,0 -11.37,5.67 -11.37,11.95 0,6.27 5.09,11.36 11.37,11.37 1.75,0 3.41,-0.42 4.9,-1.13 -0.82,1.56 -0.94,2.74 -0.94,4.62 0,6.27 5.08,11.36 11.36,11.36 1.97,0 3.44,0.09 5.07,-0.8 -1.32,1.83 -0.87,3.51 -0.87,5.58 0,5.53 4.67,9.4 10.07,10.25 22.06,-32.91 33.99,-70.96 34.62,-112.15 z"
             id="path12"
             inkscape:connector-curvature="0"
             style="fill:#ffffff" /></g><g
           id="g18"><path
             class="st1"
             d="m 526.72,668.32 c 17.04,-11.03 32.08,-23.5 45.05,-37.19 -0.7,-5.75 -5.58,-10.21 -11.52,-10.21 -3.1,0 -5.11,0.13 -7.19,2.1 1.62,-1.96 2.58,-4.51 2.58,-7.26 0,-6.28 -5.09,-11.36 -11.36,-11.37 -2.75,0 -5.27,0.95 -7.23,2.57 1.24,-1.82 1.97,-4.05 1.97,-6.42 0,-5.88 -2.35,-11.42 -12.29,-11.42 -5.76,0 -10.19,5.42 -10.19,11.3 0,2.37 0.73,4.6 1.97,6.42 -1.96,-1.62 -4.47,-2.58 -7.22,-2.58 -6.28,0 -11.37,5.09 -11.37,11.36 0,2.75 0.96,5.3 2.58,7.27 -2.09,-1.97 -4.92,-3.15 -8.01,-3.15 -6.42,0 -11.62,5.2 -11.62,11.61 0,0.35 0.03,0.72 0.06,1.09 12.68,13.18 27.31,25.2 43.79,35.88 z"
             id="path16"
             inkscape:connector-curvature="0"
             style="fill:#ffffff" /></g><g
           id="g22"><path
             class="st1"
             d="m 519.73,553.79 0.1,-0.02 c 0.58,-0.93 1.15,-1.99 1.54,-3.33 0.39,-1.33 0.25,-1.77 -1.02,-1.77 -1.28,0 -1.28,0 -2.17,0 -0.88,0 -0.97,0.88 -0.62,1.9 0.35,1.01 0.88,1.98 1.06,2.82 0.18,0.84 0.4,1.24 1.11,0.4 z"
             id="path20"
             inkscape:connector-curvature="0"
             style="fill:#ffffff" /></g><g
           id="g26"><path
             class="st1"
             d="m 533.22,553.79 c 0.66,0.84 0.87,0.44 1.03,-0.4 0.17,-0.84 0.67,-1.81 1,-2.82 0.34,-1.02 0.25,-1.9 -0.58,-1.9 -0.83,0 -0.83,0 -2.03,0 -1.2,0 -1.33,0.44 -0.97,1.77 0.37,1.34 0.91,2.4 1.45,3.33 z"
             id="path24"
             inkscape:connector-curvature="0"
             style="fill:#ffffff" /></g><g
           id="g30"><path
             class="st1"
             d="m 533.46,560.67 c 1.26,1.81 2.82,3.57 4.25,4.68 0.73,0.56 1.12,0.79 1.75,-0.04 0.62,-0.84 1.75,-2.69 1.44,-4.59 -0.31,-1.9 -1.26,-2.29 -2.01,-2.34 -1.26,-0.09 -3.44,0 -4.97,-1.41 -2.11,-1.94 -3.24,-3.89 -4.22,-9.04 -0.49,-2.6 -1.66,-3.31 -2.96,-3.31 -1.3,0 -2.47,0.7 -2.96,3.31 -0.98,5.15 -2.83,7.63 -4.93,9.57 -1.53,1.41 -3.68,1.46 -4.43,1.42 -0.76,-0.05 -1.52,-0.09 -1.83,1.81 -0.32,1.9 0.8,3.75 1.43,4.59 0.63,0.84 1.02,0.6 1.75,0.04 1.44,-1.1 3,-2.86 4.25,-4.68 1.28,-1.84 2.02,-0.97 1.12,0.84 -0.9,1.81 -2.73,4.37 -4.12,5.74 -1.01,0.99 -0.8,1.63 -0.41,2.38 0.4,0.75 1.66,1.94 2.07,2.25 0.4,0.31 2.05,1.28 3.13,-0.84 1.08,-2.12 1.93,-6.09 2.06,-7.72 0.13,-1.58 1.22,-1.32 1.34,0.05 0.07,0.66 0.05,0.93 0.05,2.69 0,1.76 -0.54,4.01 -1.39,6.18 -0.85,2.16 -0.09,2.29 0.49,2.6 0.59,0.31 1.22,0.49 2.38,0.49 1.16,0 1.79,-0.18 2.37,-0.48 0.58,-0.3 1.34,-0.44 0.49,-2.6 -0.85,-2.16 -1.39,-4.41 -1.39,-6.18 0,-1.76 -0.01,-2.03 0.05,-2.69 0.14,-1.37 1.22,-1.62 1.34,-0.05 0.14,1.64 0.98,5.61 2.06,7.72 1.08,2.11 2.74,1.15 3.14,0.84 0.41,-0.31 1.66,-1.5 2.06,-2.25 0.41,-0.75 0.61,-1.39 -0.4,-2.38 -1.39,-1.37 -3.23,-3.93 -4.12,-5.74 -0.89,-1.83 -0.15,-2.7 1.12,-0.86 z"
             id="path28"
             inkscape:connector-curvature="0"
             style="fill:#ffffff" /></g><g
           id="g34"><path
             class="st1"
             d="m 475.98,512.13 0.11,-0.02 c 0.57,-0.92 1.14,-1.99 1.54,-3.33 0.39,-1.33 0.25,-1.77 -1.02,-1.77 -1.28,0 -1.28,0 -2.16,0 -0.88,0 -0.97,0.88 -0.62,1.9 0.35,1.01 0.88,1.98 1.06,2.82 0.16,0.84 0.38,1.24 1.09,0.4 z"
             id="path32"
             inkscape:connector-curvature="0"
             style="fill:#ffffff" /></g><g
           id="g38"><path
             class="st1"
             d="m 489.47,512.14 c 0.66,0.83 0.88,0.44 1.04,-0.4 0.17,-0.84 0.67,-1.81 1,-2.82 0.33,-1.01 0.25,-1.9 -0.58,-1.9 -0.83,0 -0.83,0 -2.04,0 -1.2,0 -1.33,0.44 -0.96,1.77 0.37,1.34 0.9,2.41 1.45,3.33 z"
             id="path36"
             inkscape:connector-curvature="0"
             style="fill:#ffffff" /></g><g
           id="g42"><path
             class="st1"
             d="m 489.71,519.02 c 1.26,1.81 2.82,3.57 4.26,4.68 0.72,0.55 1.12,0.79 1.75,-0.04 0.62,-0.84 1.75,-2.69 1.44,-4.59 -0.31,-1.9 -1.25,-2.28 -2.01,-2.34 -1.25,-0.09 -3.44,-0.01 -4.97,-1.41 -2.11,-1.94 -3.25,-3.89 -4.22,-9.04 -0.5,-2.61 -1.66,-3.31 -2.96,-3.31 -1.3,0 -2.47,0.7 -2.96,3.31 -0.97,5.16 -2.82,7.63 -4.93,9.57 -1.53,1.41 -3.68,1.46 -4.43,1.41 -0.76,-0.04 -1.53,-0.09 -1.84,1.81 -0.31,1.9 0.81,3.75 1.43,4.59 0.62,0.84 1.02,0.6 1.74,0.04 1.44,-1.11 3,-2.87 4.26,-4.68 1.28,-1.84 2.02,-0.97 1.12,0.84 -0.9,1.81 -2.73,4.37 -4.12,5.74 -1.01,0.99 -0.81,1.63 -0.41,2.38 0.41,0.75 1.67,1.94 2.07,2.25 0.4,0.31 2.06,1.28 3.14,-0.84 1.08,-2.12 1.93,-6.09 2.06,-7.72 0.13,-1.59 1.21,-1.33 1.34,0.04 0.07,0.66 0.05,0.93 0.05,2.69 0,1.76 -0.54,4.02 -1.39,6.18 -0.85,2.16 -0.09,2.29 0.49,2.6 0.58,0.31 1.21,0.49 2.37,0.49 1.17,0 1.79,-0.18 2.38,-0.48 0.58,-0.31 1.34,-0.44 0.49,-2.6 -0.85,-2.16 -1.39,-4.41 -1.39,-6.18 0,-1.77 -0.02,-2.03 0.04,-2.69 0.14,-1.37 1.22,-1.63 1.35,-0.04 0.13,1.63 0.98,5.6 2.06,7.72 1.08,2.12 2.74,1.15 3.14,0.84 0.4,-0.31 1.66,-1.5 2.07,-2.25 0.4,-0.75 0.61,-1.39 -0.41,-2.38 -1.39,-1.37 -3.22,-3.93 -4.12,-5.74 -0.9,-1.82 -0.17,-2.7 1.11,-0.85 z"
             id="path40"
             inkscape:connector-curvature="0"
             style="fill:#ffffff" /></g><g
           id="g46"><path
             class="st1"
             d="m 563.02,511.44 0.11,-0.02 c 0.57,-0.92 1.14,-1.99 1.53,-3.33 0.39,-1.33 0.26,-1.77 -1.02,-1.77 -1.28,0 -1.28,0 -2.16,0 -0.88,0 -0.98,0.88 -0.62,1.9 0.35,1.01 0.88,1.99 1.05,2.82 0.19,0.85 0.4,1.25 1.11,0.4 z"
             id="path44"
             inkscape:connector-curvature="0"
             style="fill:#ffffff" /></g><g
           id="g50"><path
             class="st1"
             d="m 576.52,511.45 c 0.66,0.84 0.87,0.44 1.04,-0.4 0.17,-0.83 0.67,-1.81 1,-2.82 0.33,-1.01 0.25,-1.9 -0.58,-1.9 -0.83,0 -0.83,0 -2.03,0 -1.2,0 -1.33,0.44 -0.97,1.77 0.37,1.34 0.91,2.41 1.45,3.33 z"
             id="path48"
             inkscape:connector-curvature="0"
             style="fill:#ffffff" /></g><g
           id="g54"><path
             class="st1"
             d="m 570.04,502.27 c -1.3,0 -2.47,0.7 -2.96,3.31 -0.98,5.16 -2.83,7.63 -4.93,9.57 -1.52,1.41 -3.67,1.45 -4.43,1.41 -0.76,-0.04 -1.53,-0.09 -1.84,1.81 -0.31,1.9 0.81,3.75 1.43,4.59 0.63,0.84 1.02,0.6 1.75,0.05 1.44,-1.1 3.01,-2.87 4.25,-4.68 1.28,-1.84 2.02,-0.97 1.12,0.83 -0.9,1.81 -2.73,4.37 -4.12,5.74 -1.01,0.99 -0.81,1.63 -0.41,2.38 0.41,0.75 1.66,1.94 2.06,2.25 0.41,0.31 2.07,1.28 3.14,-0.84 1.07,-2.12 1.92,-6.08 2.06,-7.72 0.13,-1.59 1.21,-1.32 1.35,0.05 0.06,0.66 0.04,0.92 0.04,2.69 0,1.76 -0.54,4.01 -1.39,6.17 -0.85,2.16 -0.09,2.29 0.5,2.6 0.58,0.31 1.21,0.49 2.37,0.49 1.17,0 1.79,-0.18 2.37,-0.48 0.58,-0.31 1.35,-0.44 0.5,-2.6 -0.85,-2.16 -1.39,-4.41 -1.39,-6.18 0,-1.77 -0.02,-2.03 0.04,-2.69 0.14,-1.37 1.22,-1.63 1.35,-0.05 0.13,1.64 0.98,5.6 2.05,7.72 1.08,2.12 2.74,1.15 3.14,0.84 0.4,-0.31 1.65,-1.5 2.06,-2.25 0.41,-0.75 0.61,-1.39 -0.41,-2.38 -1.39,-1.37 -3.22,-3.93 -4.12,-5.74 -0.9,-1.8 -0.16,-2.68 1.12,-0.83 1.26,1.81 2.82,3.57 4.26,4.68 0.72,0.55 1.12,0.79 1.74,-0.05 0.63,-0.84 1.76,-2.69 1.44,-4.59 -0.32,-1.9 -1.26,-2.28 -2.01,-2.34 -1.26,-0.09 -3.44,0 -4.97,-1.42 -2.11,-1.94 -3.25,-3.89 -4.23,-9.04 -0.47,-2.6 -1.64,-3.3 -2.93,-3.3 z"
             id="path52"
             inkscape:connector-curvature="0"
             style="fill:#ffffff" /></g><g
           id="g58"><path
             class="st1"
             d="m 475.83,592.65 c -0.88,0 -0.97,0.88 -0.62,1.9 0.36,1.01 0.88,1.98 1.06,2.82 0.17,0.84 0.39,1.24 1.1,0.4 l 0.1,-0.02 c 0.58,-0.93 1.15,-2 1.54,-3.33 0.39,-1.33 0.25,-1.77 -1.02,-1.77 -1.29,0 -1.29,0 -2.16,0 z"
             id="path56"
             inkscape:connector-curvature="0"
             style="fill:#ffffff" /></g><g
           id="g62"><path
             class="st1"
             d="m 490.28,592.65 c -1.21,0 -1.33,0.44 -0.96,1.77 0.37,1.34 0.9,2.41 1.45,3.33 l 0.09,0.02 c 0.66,0.84 0.87,0.44 1.04,-0.4 0.17,-0.84 0.66,-1.81 1,-2.82 0.34,-1.02 0.25,-1.9 -0.58,-1.9 -0.83,0 -0.83,0 -2.04,0 z"
             id="path60"
             inkscape:connector-curvature="0"
             style="fill:#ffffff" /></g><g
           id="g66"><path
             class="st1"
             d="m 486.76,618.81 c 0.58,-0.31 1.34,-0.44 0.49,-2.6 -0.85,-2.17 -1.39,-4.41 -1.39,-6.18 0,-1.76 -0.02,-2.03 0.05,-2.69 0.13,-1.37 1.21,-1.63 1.34,-0.04 0.14,1.63 0.99,5.6 2.07,7.72 1.07,2.12 2.73,1.15 3.13,0.84 0.41,-0.31 1.66,-1.5 2.06,-2.25 0.41,-0.75 0.6,-1.39 -0.4,-2.38 -1.39,-1.37 -3.23,-3.93 -4.12,-5.74 -0.9,-1.81 -0.16,-2.69 1.12,-0.84 1.26,1.81 2.82,3.57 4.25,4.68 0.73,0.55 1.12,0.79 1.75,-0.05 0.62,-0.84 1.74,-2.69 1.43,-4.59 -0.31,-1.9 -1.25,-2.29 -2.01,-2.34 -1.25,-0.09 -3.44,0 -4.97,-1.41 -2.11,-1.94 -3.24,-3.89 -4.23,-9.04 -0.48,-2.61 -1.65,-3.31 -2.95,-3.31 -1.3,0 -2.47,0.7 -2.96,3.31 -0.98,5.15 -2.83,7.63 -4.93,9.57 -1.53,1.41 -3.68,1.46 -4.44,1.42 -0.76,-0.05 -1.52,-0.09 -1.84,1.81 -0.31,1.89 0.8,3.75 1.44,4.59 0.62,0.84 1.02,0.6 1.75,0.05 1.43,-1.11 3,-2.87 4.25,-4.68 1.28,-1.84 2.02,-0.97 1.12,0.84 -0.9,1.81 -2.74,4.37 -4.13,5.74 -1,0.99 -0.8,1.63 -0.4,2.38 0.4,0.75 1.66,1.94 2.06,2.25 0.41,0.31 2.06,1.28 3.14,-0.84 1.08,-2.12 1.93,-6.09 2.06,-7.72 0.13,-1.59 1.22,-1.32 1.34,0.04 0.07,0.66 0.05,0.93 0.05,2.69 0,1.76 -0.53,4.01 -1.39,6.18 -0.85,2.16 -0.09,2.29 0.49,2.6 0.58,0.31 1.22,0.49 2.38,0.49 1.16,0 1.8,-0.19 2.39,-0.5 z"
             id="path64"
             inkscape:connector-curvature="0"
             style="fill:#ffffff" /></g><g
           id="g70"><path
             class="st1"
             d="m 562.3,597.08 0.11,-0.02 c 0.57,-0.92 1.15,-1.99 1.54,-3.33 0.39,-1.33 0.25,-1.77 -1.02,-1.77 -1.28,0 -1.28,0 -2.16,0 -0.88,0 -0.97,0.88 -0.62,1.9 0.35,1.02 0.88,1.99 1.06,2.83 0.17,0.83 0.39,1.23 1.09,0.39 z"
             id="path68"
             inkscape:connector-curvature="0"
             style="fill:#ffffff" /></g><g
           id="g74"><path
             class="st1"
             d="m 575.8,597.08 c 0.66,0.84 0.87,0.44 1.04,-0.4 0.17,-0.84 0.67,-1.81 1,-2.83 0.33,-1.01 0.25,-1.9 -0.58,-1.9 -0.83,0 -0.83,0 -2.03,0 -1.21,0 -1.33,0.45 -0.97,1.77 0.37,1.34 0.9,2.41 1.45,3.33 z"
             id="path72"
             inkscape:connector-curvature="0"
             style="fill:#ffffff" /></g><g
           id="g78"><path
             class="st1"
             d="m 581.47,601.67 c -1.25,-0.09 -3.44,0 -4.97,-1.41 -2.11,-1.94 -3.25,-3.89 -4.23,-9.04 -0.49,-2.6 -1.65,-3.31 -2.95,-3.31 -1.3,0 -2.47,0.71 -2.97,3.31 -0.98,5.15 -2.82,7.63 -4.93,9.57 -1.53,1.41 -3.68,1.46 -4.44,1.41 -0.76,-0.04 -1.52,-0.09 -1.84,1.81 -0.31,1.9 0.81,3.75 1.44,4.59 0.62,0.84 1.02,0.6 1.75,0.04 1.43,-1.1 3,-2.87 4.25,-4.68 1.28,-1.84 2.02,-0.97 1.12,0.84 -0.89,1.81 -2.73,4.37 -4.12,5.73 -1.02,0.99 -0.81,1.64 -0.41,2.38 0.41,0.75 1.66,1.94 2.06,2.25 0.41,0.31 2.06,1.28 3.14,-0.84 1.08,-2.12 1.93,-6.09 2.06,-7.72 0.13,-1.59 1.21,-1.32 1.34,0.04 0.07,0.67 0.05,0.93 0.05,2.69 0,1.76 -0.54,4.02 -1.39,6.18 -0.86,2.16 -0.09,2.29 0.49,2.6 0.58,0.31 1.21,0.49 2.38,0.49 1.16,0 1.79,-0.18 2.37,-0.48 0.59,-0.31 1.35,-0.44 0.5,-2.6 -0.85,-2.16 -1.39,-4.41 -1.39,-6.18 0,-1.76 -0.02,-2.02 0.04,-2.69 0.14,-1.37 1.22,-1.63 1.35,-0.04 0.13,1.63 0.98,5.6 2.06,7.72 1.08,2.12 2.73,1.15 3.14,0.84 0.4,-0.31 1.66,-1.5 2.06,-2.25 0.4,-0.75 0.61,-1.39 -0.4,-2.38 -1.39,-1.37 -3.23,-3.93 -4.13,-5.73 -0.9,-1.81 -0.15,-2.69 1.12,-0.84 1.25,1.81 2.82,3.57 4.25,4.68 0.73,0.56 1.12,0.79 1.75,-0.04 0.63,-0.84 1.75,-2.69 1.44,-4.59 -0.29,-1.91 -1.23,-2.29 -1.99,-2.35 z"
             id="path76"
             inkscape:connector-curvature="0"
             style="fill:#ffffff" /></g><g
           id="g82"><polygon
             class="st1"
             points="478.35,434.16 478.34,465.65 481.22,468.22 481.23,436.88 478.59,434.16 "
             id="polygon80"
             style="fill:#ffffff" /></g><g
           id="g86"><path
             class="st1"
             d="m 482.28,469.92 h -17.09 c 0.06,0.29 0.1,0.59 0.1,0.9 0,0.37 -0.06,0.73 -0.15,1.08 h 19.89 v -7.37 h 3.36 c 0.97,0 1.76,-0.79 1.76,-1.75 0,-0.47 -0.18,-0.91 -0.51,-1.24 -0.33,-0.33 -0.77,-0.51 -1.25,-0.51 h -3.36 v -16.8 h 3.36 c 0,0 0,0 0,0 0.47,0 0.91,-0.18 1.24,-0.51 0.33,-0.33 0.52,-0.77 0.52,-1.24 0,-0.47 -0.18,-0.91 -0.52,-1.24 -0.34,-0.33 -0.77,-0.52 -1.25,-0.52 h -3.36 v -6.81 h -5.23 l 2.47,2.55 z"
             id="path84"
             inkscape:connector-curvature="0"
             style="fill:#ffffff" /></g><g
           id="g90"><path
             class="st1"
             d="m 464.79,468.86 h 15.57 l -2.76,-2.46 h -12.65 c -1.07,0 -1.85,0.21 -2.34,0.48 0.53,0.21 1.02,0.52 1.44,0.94 0.31,0.31 0.55,0.67 0.74,1.04 z"
             id="path88"
             inkscape:connector-curvature="0"
             style="fill:#ffffff" /></g><g
           id="g94"><polygon
             class="st1"
             points="440.9,436.87 440.9,468.21 443.79,465.64 443.79,434.16 443.54,434.16 "
             id="polygon92"
             style="fill:#ffffff" /></g><g
           id="g98"><path
             class="st1"
             d="m 456.93,469.91 h -17.09 l 0.01,-33.46 2.48,-2.55 h -5.23 v 6.81 h -3.36 c -0.97,0 -1.76,0.79 -1.76,1.76 0,0.97 0.79,1.75 1.76,1.75 h 3.36 v 16.8 h -3.36 c -0.97,0 -1.76,0.79 -1.76,1.75 0,0.97 0.79,1.75 1.76,1.75 h 3.36 v 7.37 h 19.89 c -0.09,-0.35 -0.15,-0.71 -0.15,-1.08 -0.01,-0.31 0.03,-0.61 0.09,-0.9 z"
             id="path96"
             inkscape:connector-curvature="0"
             style="fill:#ffffff" /></g><g
           id="g102"><path
             class="st1"
             d="m 477.29,465.35 0.01,-31.45 h -9.18 c -3.59,0 -6.52,2.93 -6.52,6.53 v 25.92 c 0.68,-0.63 1.87,-0.99 3.37,-0.99 z m -12.23,-22.8 c -0.39,-0.35 -0.29,-0.87 0.35,-0.82 0.64,0.04 0.88,0.04 1.52,0.04 h 6.18 c 0.52,-0.03 1.52,-0.5 1.52,0.53 0,1.04 0,2.21 0,3.2 0,1 -1.04,1.34 -1.38,-0.04 -0.35,-1.39 -0.35,-2.81 -2.47,-2.81 h -1.39 c -0.56,0 -0.7,0.22 -0.74,0.69 -0.13,2.12 -0.06,3.94 0,5.06 0.04,0.69 0.26,0.82 0.96,0.82 0.69,0 0.86,0 1.17,-0.52 0.3,-0.52 1.42,-1.82 1.42,0 v 2.42 c 0,1.82 -1.28,0.65 -1.51,0 -0.21,-0.57 -0.39,-0.63 -1.08,-0.63 -0.7,0 -1,0.07 -1.04,0.76 -0.13,2.4 -0.13,4.58 0,5.8 0.05,0.48 0.25,0.7 0.82,0.7 h 1.39 c 2.11,0 2.55,-1.26 2.9,-2.64 0.52,-2.08 1.38,-1.77 1.38,-0.04 0,0.99 0,2.16 0,3.2 0,1.04 -0.99,0.56 -1.52,0.53 l -6.61,0.01 c -0.64,0 -0.88,0.01 -1.52,0.05 -0.64,0.04 -0.74,-0.48 -0.35,-0.82 0.39,-0.35 0.53,-0.39 0.54,-1.73 v -12.03 c -0.01,-1.34 -0.15,-1.38 -0.54,-1.73 z"
             id="path100"
             inkscape:connector-curvature="0"
             style="fill:#ffffff" /></g><g
           id="g106"><path
             class="st1"
             d="m 463.31,468.57 c -0.6,-0.6 -1.4,-0.93 -2.25,-0.93 -1.75,0 -3.18,1.42 -3.18,3.17 0,0.47 0.11,0.93 0.3,1.35 l 0.01,0.03 c 0.53,1.1 1.65,1.8 2.86,1.8 1.22,0 2.32,-0.69 2.86,-1.8 v 0 c 0.2,-0.41 0.31,-0.88 0.31,-1.37 0.02,-0.85 -0.31,-1.65 -0.91,-2.25 z"
             id="path104"
             inkscape:connector-curvature="0"
             style="fill:#ffffff" /></g><g
           id="g110"><path
             class="st1"
             d="m 444.51,466.4 -2.76,2.46 h 15.58 c 0.47,-0.89 1.23,-1.6 2.18,-1.97 -0.49,-0.28 -1.27,-0.49 -2.35,-0.49 z"
             id="path108"
             inkscape:connector-curvature="0"
             style="fill:#ffffff" /></g><g
           id="g114"><path
             class="st1"
             d="m 457.16,465.35 c 1.5,0 2.69,0.37 3.37,0.99 v -25.92 c 0,-3.6 -2.93,-6.53 -6.52,-6.53 h -9.17 l -0.01,31.45 z m -10.11,-23.62 c 0.66,0.04 0.91,0.04 1.56,0.04 0.65,0 0.9,0 1.54,-0.04 0.64,-0.05 0.85,0.47 0.52,0.82 -0.33,0.35 -0.46,0.39 -0.19,1.73 l 1.76,8.32 c 0.28,1.41 0.94,1.06 1.24,0.01 l 2.56,-8.33 c 0.21,-1.34 -0.24,-1.39 -0.48,-1.73 -0.25,-0.35 -0.09,-0.87 0.4,-0.82 0.49,0.04 0.69,0.04 1.19,0.04 0.5,0 0.69,0 1.2,-0.04 0.51,-0.05 0.52,0.58 0.16,0.93 -0.37,0.35 -0.49,0.32 -1.03,1.63 l -4.05,13.2 c -0.28,1.1 -0.69,1.81 -1.41,1.81 -0.71,0 -0.91,-0.76 -1.19,-1.85 l -3.03,-13.16 c -0.29,-1.34 -0.44,-1.39 -0.91,-1.73 -0.49,-0.36 -0.5,-0.88 0.16,-0.83 z"
             id="path112"
             inkscape:connector-curvature="0"
             style="fill:#ffffff" /></g><g
           id="g118"><path
             class="st1"
             d="m 528.29,470.82 c 0,-0.85 -0.33,-1.64 -0.93,-2.24 -0.6,-0.6 -1.4,-0.93 -2.25,-0.93 -1.75,0 -3.17,1.42 -3.17,3.17 0,0.49 0.11,0.96 0.31,1.37 v 0 0.01 c 0.54,1.11 1.63,1.8 2.86,1.8 1.21,0 2.34,-0.71 2.87,-1.8 v 0 0 c 0.2,-0.42 0.31,-0.9 0.31,-1.38 z"
             id="path116"
             inkscape:connector-curvature="0"
             style="fill:#ffffff" /></g><g
           id="g122"><path
             class="st1"
             d="m 520.99,469.92 h -17.08 l 0.01,-33.46 2.47,-2.55 h -5.23 v 6.81 h -3.36 c -0.97,0 -1.76,0.79 -1.76,1.76 0,0.47 0.18,0.91 0.51,1.24 0.33,0.33 0.77,0.51 1.25,0.51 h 3.36 v 16.8 h -3.36 c 0,0 0,0 0,0 -0.47,0 -0.91,0.18 -1.25,0.51 -0.33,0.33 -0.51,0.77 -0.51,1.24 0,0.47 0.18,0.91 0.51,1.24 0.33,0.33 0.77,0.51 1.25,0.51 h 3.36 v 7.37 h 19.89 c -0.09,-0.35 -0.15,-0.71 -0.15,-1.08 -0.01,-0.31 0.02,-0.61 0.09,-0.9 z"
             id="path120"
             inkscape:connector-curvature="0"
             style="fill:#ffffff" /></g><g
           id="g126"><path
             class="st1"
             d="m 544.08,469.93 h -14.84 c 0.06,0.29 0.1,0.59 0.1,0.9 0,0.37 -0.06,0.73 -0.15,1.08 h 17.65 v -7.37 h 3.36 c 0.97,0 1.75,-0.79 1.75,-1.75 0,-0.47 -0.18,-0.91 -0.51,-1.24 -0.33,-0.33 -0.77,-0.51 -1.24,-0.51 h -3.36 v -16.8 h 3.36 c 0.97,0 1.75,-0.79 1.75,-1.75 0,-0.97 -0.79,-1.76 -1.75,-1.76 h -3.36 v -6.81 h -5.23 l 2.48,2.55 z"
             id="path124"
             inkscape:connector-curvature="0"
             style="fill:#ffffff" /></g><g
           id="g130"><polygon
             class="st1"
             points="504.96,436.89 504.96,468.22 507.84,465.65 507.84,434.17 507.6,434.17 "
             id="polygon128"
             style="fill:#ffffff" /></g><g
           id="g134"><path
             class="st1"
             d="m 539.09,465.36 v -31.45 h -6.92 c -3.6,0 -6.53,2.93 -6.53,6.53 v 25.92 c 0.68,-0.63 1.87,-1 3.38,-1 z m -7.6,-22.54 c -0.39,-0.35 -0.29,-0.87 0.35,-0.82 0.64,0.04 0.88,0.04 1.52,0.04 0.63,0 0.88,0 1.52,-0.04 0.63,-0.05 0.73,0.48 0.34,0.82 -0.39,0.35 -0.52,0.39 -0.54,1.73 v 12.03 c 0.01,1.34 0.15,1.39 0.54,1.73 0.39,0.35 0.29,0.87 -0.34,0.82 -0.64,-0.05 -0.89,-0.05 -1.52,-0.05 -0.64,0 -0.88,0 -1.52,0.05 -0.64,0.04 -0.74,-0.48 -0.34,-0.82 0.39,-0.34 0.53,-0.39 0.54,-1.73 v -12.03 c -0.01,-1.34 -0.15,-1.38 -0.55,-1.73 z"
             id="path132"
             inkscape:connector-curvature="0"
             style="fill:#ffffff" /></g><g
           id="g138"><polygon
             class="st1"
             points="540.15,434.17 540.15,465.66 543.03,468.23 543.03,436.89 540.39,434.17 "
             id="polygon136"
             style="fill:#ffffff" /></g><g
           id="g142"><path
             class="st1"
             d="m 528.84,468.87 h 13.33 l -2.75,-2.46 h -10.41 c -1.06,0 -1.85,0.21 -2.34,0.49 0.53,0.21 1.02,0.52 1.43,0.93 0.31,0.31 0.55,0.67 0.74,1.04 z"
             id="path140"
             inkscape:connector-curvature="0"
             style="fill:#ffffff" /></g><g
           id="g146"><path
             class="st1"
             d="m 516.12,449.49 c 0.9,0 2.9,-0.52 2.9,-3.34 0,-2.81 -1.43,-3.24 -2.3,-3.37 -0.86,-0.13 -1.84,-0.09 -1.84,1.34 v 1.99 l 0.02,2.56 c 0,0.42 0.31,0.82 1.22,0.82 z"
             id="path144"
             inkscape:connector-curvature="0"
             style="fill:#ffffff" /></g><g
           id="g150"><path
             class="st1"
             d="m 521.22,465.36 c 1.49,0 2.68,0.36 3.36,0.99 v -25.91 c 0,-1.74 -0.68,-3.38 -1.91,-4.62 -1.23,-1.23 -2.87,-1.91 -4.61,-1.91 h -9.17 l -0.01,31.45 z m -10,-7.17 c 0.35,-0.35 0.74,-0.39 0.74,-1.73 0,-1.34 0,-12.03 0,-12.6 0,-0.56 -0.04,-0.86 -0.52,-1.25 -0.48,-0.39 0.13,-0.86 0.82,-0.86 0.69,0 2.69,0.04 3.81,0.04 4.5,0 5.98,1.52 5.98,4.16 0,1.99 -1.24,3.24 -2.69,3.85 -0.41,0.18 -0.54,0.46 -0.54,0.67 0,0.22 0.05,0.32 0.24,0.65 0.19,0.32 2.92,5.71 3.29,6.21 0.37,0.5 0.59,0.71 0.84,0.91 0.16,0.12 0.15,0.76 -0.76,0.76 -0.35,0 -2.38,0 -2.38,0 0,0 -0.15,0.04 -0.43,-0.43 -0.28,-0.48 -3.53,-7.38 -3.83,-7.88 l -0.92,-0.11 -0.03,5.88 c 0,1.35 0.37,1.3 0.77,1.65 0.4,0.35 0.28,0.95 -0.37,0.91 -0.65,-0.04 -1.3,-0.04 -1.94,-0.04 -0.56,0 -1.21,0 -1.77,0.04 -0.57,0.03 -0.66,-0.49 -0.31,-0.83 z"
             id="path148"
             inkscape:connector-curvature="0"
             style="fill:#ffffff" /></g><g
           id="g154"><path
             class="st1"
             d="m 508.56,466.41 -2.75,2.46 h 15.58 c 0.47,-0.89 1.23,-1.59 2.17,-1.97 -0.49,-0.28 -1.27,-0.49 -2.34,-0.49 z"
             id="path152"
             inkscape:connector-curvature="0"
             style="fill:#ffffff" /></g><g
           id="g158"><path
             class="st1"
             d="m 588.73,452.54 c 1.62,0 1.71,-0.17 1.41,-1.04 l -0.83,-3.46 c -0.45,-2.26 -0.84,-2.19 -1.42,-0.14 l -1,3.63 c -0.39,0.86 -0.26,1.01 1.84,1.01 z"
             id="path156"
             inkscape:connector-curvature="0"
             style="fill:#ffffff" /></g><g
           id="g162"><path
             class="st1"
             d="m 570.51,466.42 -2.76,2.46 h 17.66 c 0.47,-0.89 1.24,-1.6 2.18,-1.97 -0.49,-0.28 -1.27,-0.49 -2.35,-0.49 z"
             id="path160"
             inkscape:connector-curvature="0"
             style="fill:#ffffff" /></g><g
           id="g166"><polygon
             class="st1"
             points="566.9,436.89 566.89,468.23 569.78,465.66 569.79,434.18 569.55,434.18 "
             id="polygon164"
             style="fill:#ffffff" /></g><g
           id="g170"><path
             class="st1"
             d="m 591.39,468.59 c -0.6,-0.6 -1.4,-0.93 -2.25,-0.93 -1.75,0 -3.18,1.42 -3.18,3.17 0,0.45 0.11,0.9 0.3,1.33 l 0.02,0.05 c 0.52,1.09 1.65,1.8 2.86,1.8 1.22,0 2.32,-0.69 2.86,-1.8 l 0.03,-0.06 c 0.19,-0.4 0.29,-0.85 0.29,-1.32 0,-0.84 -0.33,-1.64 -0.93,-2.24 z"
             id="path168"
             inkscape:connector-curvature="0"
             style="fill:#ffffff" /></g><g
           id="g174"><path
             class="st1"
             d="m 592.87,468.88 h 18.69 l -2.76,-2.46 h -15.77 c -1.07,0 -1.85,0.21 -2.34,0.48 0.53,0.21 1.02,0.52 1.43,0.94 0.32,0.31 0.55,0.67 0.75,1.04 z"
             id="path172"
             inkscape:connector-curvature="0"
             style="fill:#ffffff" /></g><g
           id="g178"><path
             class="st1"
             d="m 613.47,469.94 h -20.2 c 0.06,0.29 0.1,0.59 0.1,0.9 0,0.37 -0.06,0.73 -0.15,1.08 h 23.01 v -7.37 h 3.36 c 0.97,0 1.76,-0.79 1.76,-1.75 0,-0.97 -0.79,-1.75 -1.76,-1.75 h -3.36 v -16.8 h 3.36 c 0.97,0 1.76,-0.79 1.76,-1.75 0,-0.97 -0.79,-1.76 -1.76,-1.76 h -3.36 v -6.81 H 611 l 2.48,2.55 z"
             id="path176"
             inkscape:connector-curvature="0"
             style="fill:#ffffff" /></g><g
           id="g182"><path
             class="st1"
             d="m 585.24,465.37 c 1.7,0 3.02,0.47 3.62,1.27 0.09,-0.01 0.18,-0.03 0.28,-0.03 0.09,0 0.19,0.02 0.28,0.03 0.6,-0.8 1.92,-1.26 3.62,-1.26 h 15.44 l 0.01,-31.45 H 596.2 c -2.96,0 -5.56,1.96 -6.31,4.77 l -0.1,0.39 h -1.28 l -0.1,-0.39 c -0.75,-2.81 -3.34,-4.77 -6.31,-4.77 h -11.25 l -0.01,31.45 z m 11.65,-10.62 c 0,-1.59 1,-1.36 1.56,0.21 0.52,1.47 1.25,3.33 3.24,3.33 1.99,0 2.43,-2.29 2.43,-3.42 0,-1.77 -0.74,-2.38 -3.46,-4.41 -2.73,-2.03 -3.34,-3.33 -3.34,-4.94 0,-1.6 1.56,-4.11 4.08,-4.11 1.23,0 1.85,0.1 2.49,0.59 0.09,0.07 0.92,0.13 1.1,-0.11 0.26,-0.35 0.78,0.08 0.78,0.56 0,0.48 0,2.56 0.05,3.29 0.04,0.74 -0.85,1.27 -1.3,-0.04 -0.52,-1.52 -0.87,-3.55 -2.77,-3.55 -1.62,0 -2.04,1.93 -2.04,2.68 0,2.08 2.08,2.77 4.33,4.46 2.25,1.69 2.84,2.42 2.84,4.76 0,2.56 -2.43,5.2 -5.13,5.2 -1.17,0 -2.13,-0.67 -3.07,-0.67 -0.96,0 -0.89,0.34 -1.24,0.34 -0.35,0 -0.72,-0.28 -0.63,-0.88 0.08,-0.61 0.08,-2.36 0.08,-3.29 z m -9.05,-10.95 -0.06,-1.42 c -0.05,-0.54 0.92,-0.76 1.73,-0.94 0.25,-0.06 0.67,0.67 0.96,1.77 l 3.72,13.16 c 0.32,0.89 0.34,1.19 0.81,1.54 0.31,0.23 0.42,1.06 -0.24,1.02 -0.66,-0.05 -0.74,-0.05 -1.39,-0.05 -0.64,0 -1.07,0 -1.71,0.05 -0.64,0.04 -0.84,-0.48 -0.52,-0.82 0.33,-0.35 0.46,-0.39 0.19,-1.73 l -0.55,-2.26 c -0.27,-0.77 -1.73,-0.52 -2.39,-0.52 -0.65,0 -1.91,-0.2 -2.1,0.35 l -0.78,2.44 c -0.21,1.34 0.23,1.39 0.48,1.73 0.25,0.35 0.09,0.86 -0.41,0.82 -0.49,-0.05 -0.68,-0.05 -1.18,-0.05 -0.51,0 -0.7,0 -1.2,0.05 -0.51,0.04 -0.52,-0.59 -0.15,-0.93 0.37,-0.35 0.49,-0.32 1.03,-1.62 z m -15.23,-1.44 c 0,-0.61 0.04,-0.73 2.13,-0.6 1.5,0.09 2.55,0.13 3.4,0.13 0.86,0 1.91,-0.04 3.41,-0.13 2.09,-0.13 2.13,0 2.13,0.61 0,0.4 0.05,2.17 0.05,2.64 0,0.48 -0.05,1.26 -0.51,1.26 -0.45,0 -0.63,-0.52 -0.9,-1.26 -0.77,-2.08 -1.54,-2.38 -2.09,-2.38 -0.55,0 -0.7,0.44 -0.7,1.56 v 12.03 c 0.01,1.34 0.16,1.38 0.57,1.73 0.4,0.35 0.31,0.95 -0.37,0.91 -0.66,-0.05 -0.92,-0.05 -1.6,-0.05 -0.66,0 -0.92,0 -1.59,0.05 -0.67,0.04 -0.77,-0.57 -0.37,-0.91 0.42,-0.35 0.56,-0.39 0.57,-1.73 v -12.03 c 0,-1.12 -0.15,-1.56 -0.7,-1.56 -0.54,0 -1.32,0.3 -2.09,2.38 -0.27,0.73 -0.45,1.26 -0.9,1.26 -0.45,0 -0.5,-0.78 -0.5,-1.26 0,-0.48 0.06,-2.25 0.06,-2.65 z"
             id="path180"
             inkscape:connector-curvature="0"
             style="fill:#ffffff" /></g><g
           id="g186"><path
             class="st1"
             d="m 585.01,469.93 h -19.17 l 0.01,-33.46 2.48,-2.55 h -5.23 v 6.81 h -3.36 c -0.97,0 -1.76,0.79 -1.76,1.76 0,0.97 0.79,1.75 1.76,1.75 h 3.36 v 16.8 h -3.36 c -0.97,0 -1.76,0.79 -1.76,1.75 0,0.47 0.18,0.91 0.51,1.24 0.33,0.33 0.77,0.51 1.25,0.51 h 3.36 v 7.37 h 21.97 c -0.09,-0.36 -0.16,-0.72 -0.16,-1.08 -0.01,-0.31 0.03,-0.6 0.1,-0.9 z"
             id="path184"
             inkscape:connector-curvature="0"
             style="fill:#ffffff" /></g><g
           id="g190"><polygon
             class="st1"
             points="609.53,434.18 609.53,465.67 612.42,468.24 612.42,436.9 609.78,434.18 "
             id="polygon188"
             style="fill:#ffffff" /></g><g
           id="g194"><path
             class="st2"
             d="m 629.12,424.49 -204.71,-0.03 -0.01,59.17 204.71,0.03 z m -140.73,35.48 c 0.75,0 1.46,0.29 1.99,0.82 0.53,0.53 0.82,1.24 0.82,1.99 0,1.55 -1.26,2.81 -2.81,2.81 h -2.31 v 7.37 h -21.37 c -0.76,1.3 -2.13,2.1 -3.65,2.1 -1.5,0 -2.9,-0.81 -3.65,-2.1 h -21.37 v -7.37 h -2.31 c -1.55,0 -2.81,-1.26 -2.81,-2.81 0,-1.55 1.26,-2.81 2.81,-2.81 h 2.31 v -14.7 h -2.31 c -1.55,0 -2.81,-1.26 -2.81,-2.81 0,-1.55 1.26,-2.81 2.81,-2.81 h 2.31 v -6.81 h 17.97 c 3.2,0 5.94,1.99 7.05,4.8 1.11,-2.81 3.85,-4.8 7.05,-4.8 h 17.98 v 6.81 h 2.31 c 0.75,0 1.46,0.29 1.99,0.82 0.53,0.53 0.82,1.24 0.82,1.99 0,0.75 -0.29,1.46 -0.82,1.98 -0.53,0.53 -1.24,0.82 -1.99,0.82 0,0 0,0 0,0 h -2.3 v 14.7 h 2.29 z m 61.81,0.01 c 0.75,0 1.45,0.29 1.98,0.82 0.53,0.53 0.82,1.24 0.82,1.99 0,1.55 -1.26,2.81 -2.81,2.81 h -2.31 v 7.37 h -19.12 c -0.75,1.29 -2.16,2.1 -3.66,2.1 v 0 c -1.52,0 -2.89,-0.8 -3.65,-2.1 h -21.37 v -7.37 h -2.31 c -0.75,0 -1.46,-0.29 -1.99,-0.82 -0.53,-0.53 -0.82,-1.23 -0.82,-1.99 0,-0.75 0.29,-1.46 0.82,-1.99 0.53,-0.53 1.24,-0.82 1.99,-0.82 0,0 0,0 0,0 h 2.3 v -14.7 h -2.31 c -0.75,0 -1.46,-0.29 -1.99,-0.82 -0.53,-0.53 -0.82,-1.24 -0.82,-1.99 0,-1.55 1.26,-2.81 2.81,-2.81 h 2.31 v -6.81 h 17.97 c 2.02,0 3.93,0.79 5.36,2.22 0.75,0.75 1.32,1.62 1.69,2.58 1.11,-2.81 3.86,-4.8 7.06,-4.8 h 15.72 v 6.81 h 2.31 c 1.55,0 2.81,1.26 2.81,2.81 0,1.55 -1.26,2.81 -2.81,2.81 h -2.31 v 14.7 z m 69.39,0.01 c 1.55,0 2.81,1.26 2.81,2.81 0,1.55 -1.26,2.81 -2.81,2.81 h -2.31 v 7.37 h -24.49 c -0.75,1.29 -2.15,2.1 -3.65,2.1 -1.51,0 -2.91,-0.82 -3.65,-2.1 h -23.45 v -7.37 h -2.31 c -0.75,0 -1.46,-0.29 -1.99,-0.82 -0.53,-0.53 -0.82,-1.23 -0.82,-1.98 0,-1.55 1.26,-2.81 2.81,-2.81 h 2.31 v -14.7 h -2.31 c -1.55,0 -2.81,-1.26 -2.81,-2.81 0,-1.55 1.26,-2.81 2.81,-2.81 h 2.31 v -6.81 h 20.05 c 3.14,0 5.93,1.9 7.05,4.72 1.12,-2.82 3.91,-4.72 7.05,-4.72 h 21.09 v 6.81 h 2.31 c 1.55,0 2.81,1.26 2.81,2.81 0,1.55 -1.26,2.81 -2.81,2.81 h -2.31 V 460 h 2.31 z"
             id="path192"
             inkscape:connector-curvature="0"
             style="fill:#a51033" /></g><g
           id="g240"><g
             id="g198"><path
               d="m 417.6,418.01 -0.01,65.83 v 0 3.4 c 0,0 0,0 0,0 v 3.19 h 0.05 c 1.03,75.81 39,141.35 107.25,184.8 l 1.73,1.1 h 0.19 l 1.73,-1.1 C 596.8,631.81 634.8,566.28 635.85,490.47 h 0.05 l 0.01,-72.43 z m 158.04,101.15 c 0.9,1.81 2.73,4.37 4.12,5.74 1.01,0.99 0.81,1.63 0.41,2.38 -0.41,0.75 -1.66,1.94 -2.06,2.25 -0.41,0.31 -2.07,1.28 -3.14,-0.84 -1.08,-2.12 -1.92,-6.09 -2.05,-7.72 -0.13,-1.59 -1.21,-1.32 -1.35,0.05 -0.06,0.66 -0.04,0.92 -0.04,2.69 0,1.76 0.54,4.01 1.39,6.18 0.85,2.16 0.09,2.29 -0.5,2.6 -0.58,0.31 -1.2,0.49 -2.37,0.48 -1.16,0 -1.79,-0.18 -2.37,-0.49 -0.58,-0.31 -1.35,-0.44 -0.5,-2.6 0.85,-2.16 1.39,-4.41 1.39,-6.17 0,-1.77 0.02,-2.03 -0.04,-2.69 -0.14,-1.37 -1.22,-1.63 -1.35,-0.05 -0.13,1.64 -0.99,5.6 -2.06,7.72 -1.08,2.12 -2.74,1.15 -3.14,0.84 -0.4,-0.31 -1.66,-1.5 -2.06,-2.25 -0.4,-0.75 -0.6,-1.39 0.41,-2.38 1.39,-1.37 3.22,-3.93 4.12,-5.74 0.9,-1.8 0.16,-2.68 -1.12,-0.83 -1.25,1.81 -2.82,3.57 -4.25,4.68 -0.72,0.55 -1.12,0.79 -1.75,-0.05 -0.62,-0.84 -1.75,-2.69 -1.43,-4.59 0.31,-1.9 1.08,-1.85 1.84,-1.81 0.76,0.04 2.91,-0.01 4.43,-1.41 2.11,-1.94 3.96,-4.42 4.93,-9.57 0.49,-2.6 1.66,-3.31 2.96,-3.31 1.3,0 2.46,0.7 2.96,3.31 0.98,5.16 2.11,7.11 4.23,9.04 1.52,1.41 3.71,1.33 4.97,1.42 0.76,0.05 1.69,0.44 2.01,2.34 0.31,1.9 -0.81,3.75 -1.44,4.59 -0.62,0.84 -1.02,0.6 -1.74,0.05 -1.44,-1.1 -3,-2.87 -4.26,-4.68 -1.31,-1.85 -2.05,-0.98 -1.15,0.82 z m -22.32,-10.93 c 0,6.27 -5.09,11.36 -11.36,11.36 -2.03,0 -4,-0.64 -5.65,-1.57 1.18,1.79 1.81,3.82 1.81,6.12 0,6.27 -5.09,11.36 -11.37,11.36 -6.28,0 -11.36,-5.09 -11.36,-11.37 0,-2.3 0.69,-4.44 1.86,-6.23 -1.87,1.35 -4.16,2.15 -6.64,2.15 -6.28,0 -11.37,-5.09 -11.36,-11.36 0,-2.2 0.68,-4.27 1.77,-6.01 -1.82,1.23 -3.96,1.93 -6.31,1.93 -6.28,0 -11.37,-5.09 -11.37,-11.37 0,-0.98 0.16,-1.79 0.43,-2.58 h 2.99 v -0.21 l 78.36,0.01 v 0.21 h 2.92 c 0.31,0.79 0.5,1.6 0.5,2.59 0,6.28 -4.5,11.36 -10.78,11.36 -2.36,0 -3.62,0.01 -5.43,-1.21 0.67,1.46 0.99,3.11 0.99,4.82 z m -20.98,53.28 c 0.89,1.81 2.73,4.37 4.12,5.74 1.01,0.99 0.81,1.63 0.4,2.38 -0.41,0.75 -1.66,1.94 -2.06,2.25 -0.41,0.31 -2.07,1.28 -3.14,-0.84 -1.08,-2.12 -1.92,-6.09 -2.06,-7.72 -0.13,-1.58 -1.2,-1.32 -1.34,0.05 -0.06,0.66 -0.05,0.93 -0.05,2.69 0,1.76 0.54,4.01 1.39,6.18 0.85,2.16 0.09,2.29 -0.49,2.6 -0.58,0.31 -1.21,0.49 -2.37,0.48 -1.16,-0.01 -1.79,-0.18 -2.38,-0.49 -0.58,-0.31 -1.34,-0.44 -0.49,-2.6 0.85,-2.16 1.39,-4.41 1.39,-6.18 0,-1.76 0.03,-2.03 -0.05,-2.69 -0.13,-1.37 -1.21,-1.62 -1.34,-0.05 -0.13,1.63 -0.99,5.61 -2.06,7.72 -1.08,2.11 -2.73,1.15 -3.13,0.84 -0.41,-0.31 -1.66,-1.5 -2.07,-2.25 -0.4,-0.75 -0.6,-1.39 0.41,-2.38 1.39,-1.37 3.22,-3.93 4.12,-5.74 0.9,-1.81 0.16,-2.68 -1.12,-0.84 -1.25,1.81 -2.82,3.57 -4.25,4.68 -0.72,0.56 -1.12,0.79 -1.75,-0.04 -0.62,-0.84 -1.75,-2.69 -1.43,-4.59 0.31,-1.9 1.07,-1.85 1.83,-1.81 0.76,0.04 2.91,-0.01 4.43,-1.42 2.11,-1.94 3.96,-4.42 4.93,-9.57 0.49,-2.6 1.66,-3.31 2.96,-3.31 1.3,0 2.47,0.71 2.96,3.31 0.98,5.15 2.11,7.11 4.22,9.04 1.53,1.41 3.72,1.32 4.97,1.41 0.76,0.05 1.7,0.44 2.01,2.34 0.31,1.9 -0.81,3.75 -1.44,4.59 -0.63,0.84 -1.02,0.6 -1.75,0.04 -1.43,-1.1 -3,-2.87 -4.25,-4.68 -1.27,-1.82 -2.01,-0.95 -1.12,0.86 z m -14.16,-12.84 c 0.88,0 0.88,0 2.17,0 1.28,0 1.41,0.44 1.02,1.77 -0.39,1.34 -0.96,2.4 -1.54,3.33 l -0.1,0.02 c -0.71,0.84 -0.93,0.44 -1.1,-0.4 -0.18,-0.84 -0.71,-1.81 -1.06,-2.82 -0.36,-1.02 -0.27,-1.9 0.61,-1.9 z m 14.46,0 c 1.2,0 1.2,0 2.03,0 0.83,0 0.92,0.88 0.58,1.9 -0.33,1.01 -0.82,1.98 -1,2.82 -0.16,0.84 -0.37,1.24 -1.03,0.4 l -0.11,-0.02 c -0.54,-0.93 -1.08,-1.99 -1.45,-3.33 -0.35,-1.32 -0.22,-1.77 0.98,-1.77 z m -44.05,-28.82 c 0.9,1.81 2.73,4.37 4.12,5.74 1.02,0.99 0.81,1.63 0.41,2.38 -0.41,0.75 -1.67,1.94 -2.07,2.25 -0.4,0.31 -2.06,1.28 -3.14,-0.84 -1.08,-2.12 -1.93,-6.09 -2.06,-7.72 -0.13,-1.59 -1.21,-1.33 -1.35,0.04 -0.06,0.66 -0.04,0.93 -0.04,2.69 0,1.76 0.54,4.02 1.39,6.18 0.85,2.16 0.09,2.29 -0.49,2.6 -0.59,0.31 -1.21,0.49 -2.38,0.48 -1.16,0 -1.79,-0.18 -2.37,-0.49 -0.58,-0.31 -1.34,-0.44 -0.49,-2.6 0.85,-2.16 1.39,-4.41 1.39,-6.18 0,-1.77 0.02,-2.03 -0.05,-2.69 -0.13,-1.37 -1.21,-1.63 -1.34,-0.04 -0.13,1.63 -0.98,5.6 -2.06,7.72 -1.08,2.12 -2.74,1.15 -3.14,0.84 -0.4,-0.31 -1.66,-1.5 -2.07,-2.25 -0.4,-0.75 -0.6,-1.39 0.41,-2.38 1.39,-1.37 3.22,-3.92 4.12,-5.74 0.9,-1.81 0.15,-2.68 -1.12,-0.84 -1.26,1.81 -2.82,3.57 -4.26,4.68 -0.72,0.55 -1.12,0.79 -1.74,-0.04 -0.62,-0.84 -1.75,-2.69 -1.43,-4.59 0.32,-1.9 1.08,-1.85 1.84,-1.81 0.76,0.04 2.9,-0.01 4.43,-1.41 2.11,-1.94 3.96,-4.42 4.93,-9.57 0.49,-2.61 1.66,-3.31 2.96,-3.31 1.3,0 2.47,0.7 2.96,3.31 0.97,5.16 2.11,7.1 4.22,9.04 1.53,1.41 3.72,1.33 4.97,1.41 0.76,0.05 1.7,0.44 2.01,2.34 0.31,1.9 -0.81,3.75 -1.44,4.59 -0.62,0.84 -1.02,0.6 -1.75,0.04 -1.44,-1.11 -3,-2.87 -4.26,-4.68 -1.27,-1.83 -2,-0.95 -1.11,0.85 z m -64.19,-36.22 0.01,-59.17 204.71,0.03 -0.01,59.17 z m 53.22,25.15 c -0.39,1.34 -0.96,2.41 -1.54,3.33 l -0.11,0.02 c -0.7,0.83 -0.92,0.44 -1.1,-0.4 -0.17,-0.84 -0.7,-1.81 -1.06,-2.82 -0.35,-1.01 -0.27,-1.9 0.62,-1.9 0.88,0 0.88,0 2.16,0 1.28,0 1.42,0.44 1.03,1.77 z m 11.27,-1.76 c 1.21,0 1.21,0 2.04,0 0.83,0 0.91,0.88 0.58,1.9 -0.33,1.01 -0.84,1.98 -1,2.82 -0.16,0.83 -0.37,1.23 -1.04,0.4 l -0.1,-0.02 c -0.54,-0.92 -1.08,-1.99 -1.45,-3.33 -0.36,-1.33 -0.24,-1.78 0.97,-1.77 z m 75.77,1.07 c -0.39,1.34 -0.96,2.41 -1.53,3.33 l -0.11,0.02 c -0.7,0.84 -0.92,0.44 -1.1,-0.4 -0.17,-0.83 -0.7,-1.81 -1.05,-2.82 -0.36,-1.01 -0.27,-1.9 0.62,-1.9 0.88,0 0.88,0 2.16,0 1.27,0.01 1.4,0.45 1.01,1.77 z m 11.27,-1.76 c 1.2,0 1.2,0 2.03,0 0.83,0 0.91,0.88 0.58,1.9 -0.33,1.01 -0.83,1.99 -1,2.82 -0.17,0.84 -0.38,1.24 -1.04,0.4 l -0.1,-0.02 c -0.54,-0.92 -1.08,-1.99 -1.45,-3.33 -0.35,-1.33 -0.22,-1.77 0.98,-1.77 z m -116.14,97.63 c -22.54,-33.18 -34.74,-71.63 -35.36,-113.3 h 9.22 c 2.5,2.6 4.09,6.33 4.09,9.84 0,1.93 -0.46,3.67 -1.31,5.26 1.6,-0.86 3.45,-1.42 5.39,-1.42 6.28,0 11.36,5.09 11.36,11.36 0,2.12 -0.6,4.08 -1.61,5.77 1.73,-1.06 3.74,-1.69 5.92,-1.69 6.28,0 11.36,5.09 11.36,11.36 0,2.05 -0.51,3.93 -1.46,5.59 1.74,-1.08 3.82,-1.75 6.01,-1.75 6.27,0 11.37,5.09 11.36,11.37 0,1.86 -0.46,3.56 -1.25,5.11 1.54,-0.77 3.26,-1.27 5.09,-1.27 6.28,0 11.37,5.09 11.37,11.37 0,6.27 -5.09,11.36 -11.37,11.36 -1.76,0 -3.41,-0.42 -4.9,-1.13 0.81,1.56 1.29,3.32 1.29,5.21 0,6.28 -5.09,11.36 -11.37,11.36 -1.97,0 -3.79,-0.49 -5.4,-1.38 0.96,1.67 1.56,3.63 1.56,5.7 0,5.81 -4.37,10.6 -9.99,11.28 z m 33.11,-9.41 c -0.33,1.01 -0.82,1.98 -1,2.82 -0.17,0.84 -0.37,1.24 -1.04,0.4 l -0.09,-0.02 c -0.55,-0.93 -1.08,-2 -1.45,-3.33 -0.37,-1.33 -0.25,-1.77 0.96,-1.77 1.2,0 1.2,0 2.03,0 0.84,0 0.92,0.88 0.59,1.9 z m -13.89,-0.13 c -0.39,1.34 -0.96,2.41 -1.54,3.33 l -0.1,0.02 c -0.71,0.84 -0.93,0.44 -1.1,-0.4 -0.18,-0.84 -0.7,-1.81 -1.06,-2.82 -0.35,-1.02 -0.27,-1.9 0.62,-1.9 0.88,0 0.88,0 2.16,0 1.27,0 1.41,0.44 1.02,1.77 z m 2.5,21.79 c 0.86,-2.17 1.39,-4.41 1.39,-6.18 0,-1.76 0.03,-2.03 -0.05,-2.69 -0.13,-1.37 -1.21,-1.63 -1.34,-0.04 -0.13,1.63 -0.98,5.6 -2.06,7.72 -1.08,2.12 -2.73,1.15 -3.14,0.84 -0.4,-0.31 -1.66,-1.5 -2.06,-2.25 -0.4,-0.75 -0.6,-1.39 0.4,-2.38 1.39,-1.37 3.23,-3.93 4.13,-5.74 0.9,-1.81 0.16,-2.69 -1.12,-0.84 -1.25,1.81 -2.83,3.57 -4.25,4.68 -0.73,0.55 -1.12,0.79 -1.75,-0.05 -0.63,-0.84 -1.75,-2.69 -1.44,-4.59 0.32,-1.9 1.08,-1.85 1.84,-1.81 0.76,0.04 2.91,-0.01 4.44,-1.42 2.11,-1.94 3.96,-4.42 4.93,-9.57 0.49,-2.61 1.66,-3.31 2.96,-3.31 1.3,0 2.47,0.71 2.95,3.31 0.98,5.15 2.12,7.1 4.23,9.04 1.53,1.41 3.72,1.33 4.97,1.41 0.76,0.05 1.7,0.44 2.01,2.34 0.31,1.89 -0.81,3.75 -1.43,4.59 -0.63,0.84 -1.02,0.6 -1.75,0.05 -1.43,-1.11 -3,-2.87 -4.25,-4.68 -1.28,-1.84 -2.01,-0.97 -1.12,0.84 0.89,1.81 2.73,4.37 4.12,5.74 1,0.99 0.8,1.63 0.4,2.38 -0.4,0.75 -1.66,1.94 -2.06,2.25 -0.41,0.31 -2.06,1.28 -3.13,-0.84 -1.08,-2.12 -1.93,-6.09 -2.07,-7.72 -0.13,-1.59 -1.21,-1.32 -1.34,0.04 -0.07,0.66 -0.05,0.93 -0.05,2.69 0,1.76 0.54,4.01 1.39,6.18 0.85,2.16 0.09,2.29 -0.49,2.6 -0.58,0.31 -1.21,0.49 -2.37,0.49 -1.16,0 -1.79,-0.18 -2.38,-0.49 -0.6,-0.3 -1.36,-0.43 -0.51,-2.59 z m 1.36,15.14 c 0,-6.42 5.2,-11.62 11.62,-11.61 3.09,0 5.92,1.18 8.01,3.15 -1.62,-1.97 -2.58,-4.52 -2.58,-7.27 0,-6.28 5.09,-11.36 11.37,-11.36 2.75,0 5.26,0.96 7.22,2.58 -1.24,-1.82 -1.97,-4.05 -1.97,-6.42 0,-5.88 4.44,-11.3 10.19,-11.3 9.94,0 12.3,5.54 12.29,11.42 0,2.37 -0.73,4.6 -1.97,6.42 1.96,-1.62 4.48,-2.57 7.23,-2.57 6.28,0 11.37,5.09 11.36,11.37 0,2.75 -0.96,5.3 -2.58,7.26 2.08,-1.97 4.1,-2.1 7.19,-2.1 5.94,0 10.82,4.46 11.52,10.21 -12.97,13.69 -28.01,26.16 -45.05,37.19 -16.49,-10.68 -31.11,-22.7 -43.79,-35.88 -0.03,-0.37 -0.06,-0.73 -0.06,-1.09 z m 99.17,-22.75 c -0.63,0.84 -1.02,0.6 -1.75,0.04 -1.44,-1.1 -3,-2.87 -4.25,-4.68 -1.28,-1.84 -2.02,-0.97 -1.12,0.84 0.9,1.81 2.74,4.37 4.13,5.73 1,0.99 0.8,1.64 0.4,2.38 -0.4,0.75 -1.66,1.94 -2.06,2.25 -0.41,0.31 -2.06,1.28 -3.14,-0.84 -1.08,-2.12 -1.93,-6.09 -2.06,-7.72 -0.13,-1.59 -1.21,-1.32 -1.35,0.04 -0.06,0.67 -0.04,0.93 -0.04,2.69 0,1.76 0.54,4.02 1.39,6.18 0.85,2.16 0.09,2.29 -0.5,2.6 -0.58,0.31 -1.2,0.49 -2.37,0.48 -1.17,0 -1.8,-0.18 -2.38,-0.49 -0.59,-0.31 -1.35,-0.44 -0.49,-2.6 0.85,-2.16 1.39,-4.41 1.39,-6.18 0,-1.76 0.02,-2.02 -0.05,-2.69 -0.13,-1.37 -1.22,-1.63 -1.34,-0.04 -0.13,1.63 -0.98,5.6 -2.06,7.72 -1.08,2.12 -2.73,1.15 -3.14,0.84 -0.4,-0.31 -1.65,-1.5 -2.06,-2.25 -0.41,-0.75 -0.61,-1.39 0.41,-2.38 1.39,-1.37 3.22,-3.92 4.12,-5.73 0.9,-1.81 0.17,-2.69 -1.12,-0.84 -1.26,1.81 -2.83,3.57 -4.25,4.68 -0.73,0.56 -1.12,0.79 -1.75,-0.04 -0.63,-0.84 -1.75,-2.69 -1.44,-4.59 0.32,-1.9 1.08,-1.85 1.84,-1.81 0.76,0.05 2.91,0 4.44,-1.41 2.11,-1.94 3.95,-4.42 4.93,-9.57 0.5,-2.6 1.66,-3.31 2.97,-3.31 1.3,0 2.46,0.71 2.95,3.31 0.98,5.15 2.12,7.1 4.23,9.04 1.53,1.41 3.72,1.32 4.97,1.41 0.76,0.05 1.7,0.44 2.01,2.34 0.29,1.91 -0.82,3.76 -1.46,4.6 z m -21.28,-16.64 c 0.88,0 0.88,0 2.16,0 1.28,0 1.41,0.45 1.02,1.77 -0.39,1.34 -0.96,2.41 -1.54,3.33 l -0.11,0.02 c -0.7,0.84 -0.92,0.44 -1.1,-0.4 -0.18,-0.84 -0.7,-1.81 -1.06,-2.83 -0.34,-1.01 -0.25,-1.89 0.63,-1.89 z m 14.46,0 c 1.2,0 1.2,0 2.03,0 0.84,0 0.92,0.88 0.58,1.9 -0.33,1.02 -0.83,1.99 -1,2.83 -0.17,0.84 -0.37,1.24 -1.04,0.4 l -0.1,-0.02 c -0.55,-0.92 -1.08,-1.99 -1.45,-3.33 -0.35,-1.33 -0.23,-1.78 0.98,-1.78 z m 9.17,0.63 c 0,-2.07 -0.45,-3.74 0.87,-5.58 -1.62,0.89 -3.09,0.8 -5.07,0.8 -6.27,0 -11.36,-5.09 -11.36,-11.36 0,-1.88 0.12,-3.06 0.94,-4.62 -1.49,0.71 -3.14,1.13 -4.9,1.13 -6.28,0 -11.37,-5.09 -11.37,-11.37 0,-6.27 5.09,-11.95 11.37,-11.95 1.83,0 3.32,0.03 4.87,0.8 -0.8,-1.56 -1.02,-2.2 -1.02,-4.06 0,-6.28 5.09,-12.65 11.36,-12.65 2.2,0 3.93,0.43 5.66,1.51 -0.96,-1.66 -1.11,-2.02 -1.11,-4.07 0,-6.9 4.15,-12.65 11.36,-12.65 2.18,0 4.19,0.64 5.92,1.7 -1.02,-1.7 -1.61,-3.66 -1.61,-5.77 0,-6.28 5.09,-11.36 11.37,-11.36 1.68,0 3.26,0.41 4.7,1.08 -0.39,-1.13 -0.62,-3.28 -0.62,-4.57 0,-3.33 1.26,-6.58 3.47,-8.9 h 9.84 c -0.63,41.19 -12.56,79.24 -34.62,112.15 -5.38,-0.86 -10.05,-4.74 -10.05,-10.26 z"
               id="path196"
               inkscape:connector-curvature="0" /></g><g
             id="g202"><path
               d="m 488.39,445.27 c 0,0 0,0 0,0 0.75,0 1.46,-0.29 1.99,-0.82 0.53,-0.53 0.82,-1.23 0.82,-1.98 0,-0.75 -0.29,-1.46 -0.82,-1.99 -0.53,-0.53 -1.24,-0.82 -1.99,-0.82 h -2.31 v -6.81 H 468.1 c -3.2,0 -5.94,1.99 -7.05,4.8 -1.11,-2.81 -3.85,-4.8 -7.05,-4.8 h -17.97 v 6.81 h -2.31 c -1.55,0 -2.81,1.26 -2.81,2.81 0,1.55 1.26,2.81 2.81,2.81 h 2.31 v 14.7 h -2.31 c -1.55,0 -2.81,1.26 -2.81,2.81 0,1.55 1.26,2.81 2.81,2.81 h 2.31 v 7.37 h 21.37 c 0.75,1.29 2.15,2.1 3.65,2.1 1.52,0 2.89,-0.8 3.65,-2.1 h 21.37 v -7.37 h 2.31 c 1.55,0 2.81,-1.26 2.81,-2.81 0,-0.75 -0.29,-1.46 -0.82,-1.99 -0.53,-0.53 -1.24,-0.82 -1.99,-0.82 h -2.31 v -14.7 h 2.32 z m 0,19.26 h -3.36 v 7.37 h -19.89 c 0.09,-0.35 0.15,-0.71 0.15,-1.08 0,-0.31 -0.04,-0.61 -0.1,-0.9 h 17.09 l 0.01,-33.46 -2.47,-2.55 h 5.23 v 6.81 h 3.36 c 0.47,0 0.91,0.18 1.25,0.52 0.34,0.34 0.52,0.77 0.52,1.24 0,0.47 -0.18,0.91 -0.52,1.24 -0.33,0.33 -0.77,0.51 -1.24,0.51 0,0 0,0 0,0 h -3.36 v 16.8 h 3.36 c 0.47,0 0.91,0.18 1.25,0.51 0.33,0.33 0.51,0.77 0.51,1.24 -0.03,0.97 -0.82,1.75 -1.79,1.75 z m -27.33,9.46 c -1.21,0 -2.33,-0.71 -2.86,-1.8 l -0.01,-0.03 c -0.2,-0.42 -0.3,-0.88 -0.3,-1.35 0,-1.75 1.43,-3.17 3.18,-3.17 0.85,0 1.65,0.33 2.25,0.93 0.6,0.6 0.93,1.4 0.93,2.24 0,0.49 -0.11,0.96 -0.31,1.37 v 0 c -0.56,1.12 -1.65,1.81 -2.88,1.81 z m -23.97,-2.1 v -7.37 h -3.36 c -0.97,0 -1.76,-0.79 -1.76,-1.75 0,-0.97 0.79,-1.75 1.76,-1.75 h 3.36 v -16.8 h -3.36 c -0.97,0 -1.76,-0.79 -1.76,-1.75 0,-0.97 0.79,-1.76 1.76,-1.76 h 3.36 v -6.81 h 5.23 l -2.48,2.55 -0.01,33.46 h 17.09 c -0.06,0.29 -0.1,0.59 -0.1,0.9 0,0.37 0.06,0.73 0.15,1.08 z m 23.45,-31.46 v 25.92 c -0.68,-0.63 -1.87,-0.99 -3.37,-0.99 h -12.33 l 0.01,-31.45 h 9.17 c 3.59,-0.01 6.52,2.92 6.52,6.52 z m 7.57,-6.53 h 9.18 l -0.01,31.45 h -12.33 c -1.5,0 -2.69,0.36 -3.37,0.99 v -25.92 c 0.01,-3.59 2.94,-6.52 6.53,-6.52 z m -4.06,33.93 c -0.42,-0.42 -0.91,-0.73 -1.44,-0.94 0.49,-0.28 1.27,-0.48 2.34,-0.48 h 12.65 l 2.76,2.46 h -15.57 c -0.19,-0.38 -0.43,-0.74 -0.74,-1.04 z m -6.72,1.03 h -15.58 l 2.76,-2.46 h 12.65 c 1.07,0 1.86,0.21 2.35,0.49 -0.94,0.38 -1.71,1.08 -2.18,1.97 z m -13.54,-3.22 -2.89,2.57 0.01,-31.34 2.64,-2.72 h 0.25 z m 37.43,2.58 -2.88,-2.57 0.01,-31.48 h 0.25 l 2.63,2.72 z"
               id="path200"
               inkscape:connector-curvature="0" /></g><g
             id="g206"><path
               d="m 465.06,458.05 c -0.39,0.34 -0.29,0.86 0.35,0.82 0.64,-0.04 0.88,-0.05 1.52,-0.05 l 6.61,-0.01 c 0.53,0.03 1.52,0.51 1.52,-0.53 0,-1.04 0,-2.21 0,-3.2 0,-1.73 -0.86,-2.04 -1.38,0.04 -0.35,1.39 -0.79,2.64 -2.9,2.64 h -1.39 c -0.56,0 -0.77,-0.22 -0.82,-0.7 -0.13,-1.21 -0.13,-3.4 0,-5.8 0.03,-0.69 0.34,-0.76 1.04,-0.76 0.69,0 0.87,0.06 1.08,0.63 0.23,0.65 1.51,1.82 1.51,0 v -2.42 c 0,-1.82 -1.12,-0.52 -1.42,0 -0.31,0.52 -0.48,0.52 -1.17,0.52 -0.7,0 -0.92,-0.13 -0.96,-0.82 -0.06,-1.13 -0.13,-2.94 0,-5.06 0.03,-0.48 0.17,-0.69 0.74,-0.69 h 1.39 c 2.11,0 2.11,1.43 2.47,2.81 0.35,1.39 1.38,1.04 1.38,0.04 0,-0.99 0,-2.16 0,-3.2 0,-1.04 -0.99,-0.56 -1.52,-0.53 h -6.18 c -0.64,0 -0.88,0 -1.52,-0.04 -0.64,-0.05 -0.74,0.47 -0.35,0.82 0.39,0.35 0.53,0.39 0.54,1.73 v 12.03 c -0.01,1.34 -0.15,1.38 -0.54,1.73 z"
               id="path204"
               inkscape:connector-curvature="0" /></g><g
             id="g210"><path
               d="m 446.88,442.55 c 0.47,0.35 0.62,0.39 0.91,1.73 l 3.03,13.16 c 0.29,1.09 0.48,1.85 1.19,1.85 0.72,0 1.12,-0.71 1.41,-1.81 l 4.05,-13.2 c 0.54,-1.31 0.66,-1.28 1.03,-1.63 0.37,-0.35 0.35,-0.97 -0.16,-0.93 -0.51,0.04 -0.7,0.04 -1.2,0.04 -0.5,0 -0.69,0 -1.19,-0.04 -0.49,-0.05 -0.65,0.47 -0.4,0.82 0.25,0.35 0.7,0.39 0.48,1.73 l -2.56,8.33 c -0.3,1.05 -0.96,1.4 -1.24,-0.01 l -1.76,-8.32 c -0.27,-1.34 -0.14,-1.39 0.19,-1.73 0.32,-0.35 0.11,-0.87 -0.52,-0.82 -0.64,0.04 -0.89,0.04 -1.54,0.04 -0.65,0 -0.9,0 -1.56,-0.04 -0.65,-0.04 -0.64,0.48 -0.16,0.83 z"
               id="path208"
               inkscape:connector-curvature="0" /></g><g
             id="g214"><path
               d="m 550.2,445.28 c 1.55,0 2.81,-1.26 2.81,-2.81 0,-1.55 -1.26,-2.81 -2.81,-2.81 h -2.31 v -6.81 h -15.72 c -3.2,0 -5.94,1.99 -7.06,4.8 -0.38,-0.95 -0.95,-1.83 -1.69,-2.58 -1.43,-1.43 -3.33,-2.22 -5.36,-2.22 h -17.97 v 6.81 h -2.31 c -1.55,0 -2.81,1.26 -2.81,2.81 0,0.75 0.29,1.46 0.82,1.99 0.53,0.53 1.24,0.82 1.99,0.82 h 2.31 v 14.7 h -2.3 c 0,0 0,0 0,0 -0.75,0 -1.46,0.29 -1.99,0.82 -0.53,0.53 -0.82,1.23 -0.82,1.99 0,0.75 0.29,1.46 0.82,1.99 0.53,0.53 1.24,0.82 1.99,0.82 h 2.31 v 7.37 h 21.37 c 0.76,1.3 2.13,2.1 3.65,2.1 v 0 c 1.5,0 2.9,-0.81 3.66,-2.1 h 19.12 v -7.37 h 2.31 c 1.55,0 2.81,-1.26 2.81,-2.81 0,-0.75 -0.29,-1.45 -0.82,-1.99 -0.53,-0.53 -1.23,-0.82 -1.98,-0.82 h -2.31 v -14.7 z m -3.36,26.63 h -17.65 c 0.09,-0.35 0.15,-0.71 0.15,-1.08 0,-0.31 -0.04,-0.61 -0.1,-0.9 h 14.84 l 0.01,-33.46 -2.48,-2.55 h 5.23 v 6.81 h 3.36 c 0.97,0 1.75,0.79 1.75,1.76 0,0.97 -0.79,1.75 -1.75,1.75 h -3.36 v 16.8 h 3.36 c 0.47,0 0.91,0.18 1.24,0.51 0.33,0.33 0.51,0.77 0.51,1.24 0,0.97 -0.79,1.75 -1.75,1.75 h -3.36 z m -18.86,0.29 c -0.53,1.09 -1.65,1.8 -2.87,1.8 -1.23,0 -2.32,-0.69 -2.86,-1.8 v -0.01 0 c -0.2,-0.41 -0.31,-0.88 -0.31,-1.37 0,-1.75 1.42,-3.17 3.17,-3.17 0.85,0 1.65,0.33 2.25,0.93 0.6,0.6 0.93,1.4 0.93,2.24 0,0.48 -0.11,0.96 -0.31,1.38 z m -26.83,-0.3 v -7.37 h -3.36 c -0.47,0 -0.92,-0.18 -1.25,-0.51 -0.33,-0.33 -0.51,-0.77 -0.51,-1.24 0,-0.47 0.18,-0.91 0.51,-1.24 0.33,-0.33 0.77,-0.51 1.25,-0.51 0,0 0,0 0,0 h 3.36 v -16.8 h -3.36 c -0.47,0 -0.92,-0.18 -1.25,-0.51 -0.33,-0.33 -0.51,-0.77 -0.51,-1.24 0,-0.97 0.79,-1.76 1.76,-1.76 h 3.36 v -6.81 h 5.23 l -2.47,2.55 -0.01,33.46 h 17.08 c -0.06,0.29 -0.1,0.59 -0.1,0.9 0,0.37 0.06,0.73 0.15,1.08 z m 21.53,-36.08 c 1.23,1.23 1.91,2.87 1.91,4.62 v 25.91 c -0.68,-0.63 -1.87,-0.99 -3.36,-0.99 H 508.9 l 0.01,-31.45 h 9.17 c 1.73,0 3.37,0.68 4.6,1.91 z m 16.42,-1.91 v 31.45 h -10.08 c -1.5,0 -2.7,0.37 -3.38,1 v -25.92 c 0,-3.6 2.93,-6.53 6.53,-6.53 z m -11,33.93 c -0.41,-0.41 -0.9,-0.72 -1.43,-0.93 0.49,-0.27 1.28,-0.49 2.34,-0.49 h 10.41 l 2.75,2.46 h -13.33 c -0.19,-0.38 -0.43,-0.74 -0.74,-1.04 z m -6.71,1.03 h -15.58 l 2.75,-2.46 h 12.66 c 1.06,0 1.85,0.21 2.34,0.49 -0.94,0.38 -1.71,1.08 -2.17,1.97 z m -13.55,-3.22 -2.88,2.57 0.01,-31.34 2.63,-2.72 h 0.25 z m 35.19,2.58 -2.88,-2.57 v -31.48 h 0.24 l 2.64,2.72 z"
               id="path212"
               inkscape:connector-curvature="0" /></g><g
             id="g218"><path
               d="m 511.52,459.01 c 0.56,-0.04 1.22,-0.04 1.77,-0.04 0.64,0 1.3,0 1.94,0.04 0.64,0.04 0.76,-0.56 0.37,-0.91 -0.4,-0.35 -0.77,-0.3 -0.77,-1.65 l 0.03,-5.88 0.92,0.11 c 0.31,0.49 3.55,7.4 3.83,7.88 0.28,0.48 0.43,0.43 0.43,0.43 0,0 2.03,0 2.38,0 0.91,0 0.92,-0.64 0.76,-0.76 -0.26,-0.2 -0.47,-0.41 -0.84,-0.91 -0.37,-0.5 -3.1,-5.89 -3.29,-6.21 -0.19,-0.33 -0.24,-0.43 -0.24,-0.65 0,-0.22 0.13,-0.5 0.54,-0.67 1.45,-0.61 2.69,-1.86 2.69,-3.85 0,-2.64 -1.47,-4.16 -5.98,-4.16 -1.12,0 -3.12,-0.04 -3.81,-0.04 -0.69,0 -1.3,0.47 -0.82,0.86 0.48,0.39 0.52,0.69 0.52,1.25 0,0.56 0,11.25 0,12.6 0,1.35 -0.39,1.39 -0.74,1.73 -0.34,0.35 -0.25,0.87 0.31,0.83 z m 3.36,-14.9 c 0,-1.43 0.98,-1.47 1.84,-1.34 0.87,0.13 2.3,0.56 2.3,3.37 0,2.82 -1.99,3.34 -2.9,3.34 -0.91,0 -1.22,-0.39 -1.22,-0.82 l -0.02,-2.56 z"
               id="path216"
               inkscape:connector-curvature="0" /></g><g
             id="g222"><path
               d="m 531.49,458.32 c -0.39,0.35 -0.29,0.87 0.34,0.82 0.64,-0.05 0.88,-0.05 1.52,-0.05 0.63,0 0.88,0 1.52,0.05 0.63,0.04 0.73,-0.47 0.34,-0.82 -0.39,-0.34 -0.52,-0.39 -0.54,-1.73 v -12.03 c 0.01,-1.34 0.15,-1.39 0.54,-1.73 0.39,-0.35 0.29,-0.87 -0.34,-0.82 -0.64,0.04 -0.89,0.04 -1.52,0.04 -0.64,0 -0.88,0 -1.52,-0.04 -0.64,-0.05 -0.74,0.47 -0.35,0.82 0.39,0.35 0.53,0.39 0.54,1.73 v 12.03 c 0,1.34 -0.14,1.38 -0.53,1.73 z"
               id="path220"
               inkscape:connector-curvature="0" /></g><g
             id="g226"><path
               d="m 619.59,445.3 c 1.55,0 2.81,-1.26 2.81,-2.81 0,-1.55 -1.26,-2.81 -2.81,-2.81 h -2.31 v -6.81 h -21.09 c -3.14,0 -5.92,1.9 -7.05,4.72 -1.12,-2.82 -3.91,-4.72 -7.05,-4.72 h -20.05 v 6.81 h -2.31 c -1.55,0 -2.81,1.26 -2.81,2.81 0,1.55 1.26,2.81 2.81,2.81 h 2.31 V 460 h -2.31 c -1.55,0 -2.81,1.26 -2.81,2.81 0,0.75 0.29,1.45 0.82,1.98 0.53,0.53 1.24,0.82 1.99,0.82 h 2.31 v 7.37 h 23.45 c 0.75,1.29 2.15,2.1 3.65,2.1 1.5,0 2.89,-0.81 3.65,-2.1 h 24.49 v -7.37 h 2.31 c 1.55,0 2.81,-1.26 2.81,-2.81 0,-1.55 -1.26,-2.81 -2.81,-2.81 h -2.31 v -14.7 z m -0.01,19.25 h -3.36 v 7.37 h -23.01 c 0.09,-0.35 0.15,-0.71 0.15,-1.08 0,-0.31 -0.04,-0.61 -0.1,-0.9 h 20.2 l 0.01,-33.46 -2.48,-2.55 h 5.23 v 6.81 h 3.36 c 0.97,0 1.76,0.79 1.76,1.76 0,0.97 -0.79,1.75 -1.76,1.75 h -3.36 v 16.8 h 3.36 c 0.97,0 1.76,0.79 1.76,1.75 0,0.97 -0.79,1.75 -1.76,1.75 z m -30.44,9.46 c -1.22,0 -2.34,-0.71 -2.86,-1.8 l -0.02,-0.05 c -0.19,-0.43 -0.3,-0.88 -0.3,-1.33 0,-1.75 1.43,-3.17 3.18,-3.17 0.85,0 1.65,0.33 2.25,0.93 0.6,0.6 0.93,1.4 0.93,2.24 0,0.47 -0.1,0.92 -0.29,1.32 l -0.03,0.06 c -0.54,1.11 -1.64,1.8 -2.86,1.8 z m -26.05,-2.1 v -7.37 h -3.36 c -0.47,0 -0.91,-0.18 -1.25,-0.51 -0.33,-0.33 -0.51,-0.77 -0.51,-1.24 0,-0.97 0.79,-1.75 1.76,-1.75 h 3.36 v -16.8 h -3.36 c -0.97,0 -1.76,-0.79 -1.76,-1.75 0,-0.97 0.79,-1.76 1.76,-1.76 h 3.36 v -6.81 h 5.23 l -2.48,2.55 -0.01,33.46 H 585 c -0.06,0.29 -0.1,0.59 -0.1,0.9 0,0.36 0.06,0.72 0.16,1.08 z m 25.31,-33.22 0.1,0.39 h 1.28 l 0.1,-0.39 c 0.75,-2.81 3.34,-4.77 6.31,-4.77 h 12.29 l -0.01,31.45 h -15.44 c -1.7,0 -3.01,0.47 -3.62,1.26 -0.09,-0.01 -0.18,-0.03 -0.28,-0.03 -0.1,0 -0.18,0.02 -0.28,0.03 -0.6,-0.8 -1.92,-1.27 -3.62,-1.27 h -14.4 l 0.01,-31.45 h 11.25 c 2.97,0.01 5.57,1.97 6.31,4.78 z m 3.73,29.16 c -0.42,-0.41 -0.9,-0.73 -1.43,-0.94 0.49,-0.28 1.27,-0.48 2.34,-0.48 h 15.77 l 2.76,2.46 h -18.69 c -0.21,-0.38 -0.44,-0.74 -0.75,-1.04 z m 20.29,0.39 -2.89,-2.57 0.01,-31.48 h 0.25 l 2.64,2.72 z m -27.01,0.64 h -17.66 l 2.76,-2.46 h 14.73 c 1.08,0 1.86,0.21 2.35,0.49 -0.95,0.38 -1.71,1.08 -2.18,1.97 z m -15.63,-3.22 -2.89,2.57 0.01,-31.34 2.65,-2.72 h 0.24 z"
               id="path224"
               inkscape:connector-curvature="0" /></g><g
             id="g230"><path
               d="m 583.05,457.98 c -0.37,0.35 -0.36,0.97 0.15,0.93 0.51,-0.05 0.7,-0.05 1.2,-0.05 0.5,0 0.69,0 1.18,0.05 0.5,0.04 0.65,-0.48 0.41,-0.82 -0.25,-0.35 -0.7,-0.39 -0.48,-1.73 l 0.78,-2.44 c 0.19,-0.54 1.45,-0.35 2.1,-0.35 0.65,0 2.12,-0.25 2.39,0.52 l 0.55,2.26 c 0.27,1.34 0.15,1.39 -0.19,1.73 -0.32,0.35 -0.11,0.86 0.52,0.82 0.64,-0.05 1.06,-0.05 1.71,-0.05 0.65,0 0.73,0 1.39,0.05 0.66,0.04 0.55,-0.79 0.24,-1.02 -0.47,-0.34 -0.49,-0.64 -0.81,-1.54 l -3.72,-13.16 c -0.29,-1.09 -0.7,-1.82 -0.96,-1.77 -0.81,0.19 -1.78,0.4 -1.73,0.94 l 0.06,1.42 -3.76,12.56 c -0.55,1.34 -0.67,1.31 -1.03,1.65 z m 3.83,-6.46 1,-3.63 c 0.59,-2.05 0.97,-2.11 1.42,0.14 l 0.83,3.46 c 0.3,0.87 0.21,1.04 -1.41,1.04 -2.09,0.01 -2.22,-0.14 -1.84,-1.01 z"
               id="path228"
               inkscape:connector-curvature="0" /></g><g
             id="g234"><path
               d="m 573.06,446.26 c 0.45,0 0.63,-0.52 0.9,-1.26 0.77,-2.08 1.54,-2.38 2.09,-2.38 0.55,0 0.7,0.44 0.7,1.56 v 12.03 c -0.01,1.34 -0.15,1.38 -0.57,1.73 -0.41,0.35 -0.31,0.95 0.37,0.91 0.67,-0.05 0.92,-0.05 1.59,-0.05 0.67,0 0.93,0 1.6,0.05 0.67,0.04 0.77,-0.56 0.37,-0.91 -0.41,-0.35 -0.56,-0.39 -0.57,-1.73 v -12.03 c 0,-1.12 0.16,-1.56 0.7,-1.56 0.55,0 1.32,0.3 2.09,2.38 0.27,0.73 0.45,1.26 0.9,1.26 0.46,0 0.51,-0.78 0.51,-1.26 0,-0.48 -0.05,-2.24 -0.05,-2.64 0,-0.61 -0.05,-0.73 -2.13,-0.61 -1.5,0.09 -2.55,0.13 -3.41,0.13 -0.86,0 -1.91,-0.04 -3.4,-0.13 -2.09,-0.13 -2.13,0 -2.13,0.6 0,0.4 -0.05,2.17 -0.05,2.64 0,0.47 0.04,1.27 0.49,1.27 z"
               id="path232"
               inkscape:connector-curvature="0" /></g><g
             id="g238"><path
               d="m 597.43,458.92 c 0.35,0 0.28,-0.34 1.24,-0.34 0.94,0 1.9,0.67 3.07,0.67 2.7,0 5.13,-2.64 5.13,-5.2 0,-2.33 -0.59,-3.07 -2.84,-4.76 -2.25,-1.69 -4.33,-2.38 -4.33,-4.46 0,-0.75 0.42,-2.69 2.04,-2.68 1.9,0 2.25,2.03 2.77,3.55 0.44,1.31 1.34,0.78 1.3,0.04 -0.05,-0.73 -0.05,-2.82 -0.05,-3.29 0,-0.48 -0.52,-0.91 -0.78,-0.56 -0.18,0.23 -1.01,0.17 -1.1,0.11 -0.64,-0.48 -1.26,-0.58 -2.49,-0.59 -2.51,0 -4.07,2.51 -4.08,4.11 0,1.6 0.61,2.9 3.34,4.94 2.73,2.03 3.46,2.64 3.46,4.41 0,1.13 -0.43,3.42 -2.43,3.42 -1.99,0 -2.72,-1.86 -3.24,-3.33 -0.56,-1.57 -1.56,-1.8 -1.56,-0.21 0,0.93 0,2.68 -0.09,3.29 -0.08,0.6 0.29,0.88 0.64,0.88 z"
               id="path236"
               inkscape:connector-curvature="0" /></g></g></g></g><g
       id="g302"><g
         id="g300"><path
           d="m 697.92,418.06 h 17.8 v 25.6 h 26.5 v -25.6 h 17.8 l -0.01,71.2 h -17.8 l 0.01,-30 h -26.5 v 30 h -17.8 z"
           id="path246"
           inkscape:connector-curvature="0" /><path
           d="m 815.01,478.18 c 0,3.7 0.1,7.8 1.4,11.1 h -14.4 c -0.6,-1.8 -0.9,-3.7 -1,-5.5 h -0.2 c -2.6,4.2 -10.4,6.9 -16,6.9 -10.2,0 -17.8,-5.6 -17.8,-15.8 0,-12.8 10.3,-17.3 27.3,-19.7 l 5.7,-0.8 v -4.4 c 0,-4 -3.2,-5.7 -7.4,-5.7 -5,0 -7.4,1.8 -8.2,7.1 h -15 c 0.5,-15.3 14.7,-16.7 21.9,-16.7 14.5,0 23.6,3.4 23.7,15.41 z m -15,-14.8 -10.5,3 c -3.9,1.1 -7.5,2.6 -7.5,6.9 0,4.2 3.5,6 7.3,6 6.1,0 10.7,-4.1 10.7,-12.2 z"
           id="path248"
           inkscape:connector-curvature="0" /><path
           d="m 824.01,436.08 h 15.6 v 5.4 c 3.4,-3.2 9.1,-5.2 14.6,-5.6 l 0.1,13.8 -1.7,0.2 c -9.3,1.1 -13,2.7 -13,8.6 v 30.8 h -15.6 z"
           id="path250"
           inkscape:connector-curvature="0" /><path
           d="m 858.81,436.08 h 16.7 l 9.19,37.6 h 0.2 l 9.21,-37.6 h 16.6 l -18.21,53.2 h -15.7 z"
           id="path252"
           inkscape:connector-curvature="0" /><path
           d="m 959.01,478.2 c 0,3.7 0.1,7.8 1.4,11.1 h -14.4 c -0.6,-1.8 -0.9,-3.7 -1,-5.5 h -0.2 c -2.6,4.2 -10.4,6.9 -16,6.9 -10.2,0 -17.8,-5.6 -17.8,-15.8 0,-12.8 10.3,-17.3 27.3,-19.7 l 5.7,-0.8 V 450 c 0,-4 -3.2,-5.7 -7.4,-5.7 -5,0 -7.4,1.8 -8.2,7.1 h -15 c 0.5,-15.3 14.7,-16.7 21.9,-16.7 14.5,0 23.6,3.4 23.7,15.41 z m -15,-14.8 -10.5,3 c -3.9,1.1 -7.5,2.6 -7.5,6.9 0,4.2 3.5,6 7.3,6 6.1,0 10.7,-4.1 10.7,-12.2 z"
           id="path254"
           inkscape:connector-curvature="0" /><path
           d="m 968.01,436.1 h 15.6 v 5.4 c 3.4,-3.2 9.1,-5.2 14.6,-5.6 l 0.1,13.8 -1.7,0.2 c -9.3,1.1 -13,2.7 -13,8.6 l -0.01,30.8 H 968 Z"
           id="path256"
           inkscape:connector-curvature="0" /><path
           d="m 1055.71,489.32 h -15 v -5.2 h -0.2 c -2.6,3.3 -7.3,6.6 -14.3,6.6 -12.8,0 -23,-8.3 -23.3,-27.61 -0.3,-21.2 11.91,-28.4 22.61,-28.4 4.3,0 10,0.8 14.6,5.6 v -22.2 h 15.6 z m -26.5,-43.21 c -7.4,0 -10.7,6.4 -10.7,16.6 0,8.7 2.1,16.6 10.7,16.6 8.1,0 10.9,-7.5 10.9,-17.7 0,-9.49 -2.8,-15.49 -10.9,-15.5 z"
           id="path258"
           inkscape:connector-curvature="0" /><path
           d="m 1088.21,418.12 34.8,0.01 c 14.4,0 24.1,5 24.1,18.3 0,9.1 -5.2,13.9 -14.9,16.1 v 0.2 c 9.7,0.7 17.5,5.8 17.5,16.3 0,14.7 -11,20.3 -29.11,20.3 h -32.4 z m 17,28.01 h 14.8 c 5.7,0 9.3,-2.2 9.3,-7.4 0,-6 -3.4,-7.4 -9.3,-7.4 h -14.8 z m 0.19,30 h 14.5 c 9.4,0 12,-3.7 12,-8.3 0,-5.9 -2.2,-8.5 -8.8,-8.5 h -17.7 z"
           id="path260"
           inkscape:connector-curvature="0" /><path
           d="m 1203,489.35 h -15.6 v -4.7 c -4,4.7 -10.6,6.1 -15.4,6.1 -12.6,0 -16.1,-7.3 -16.1,-15.3 l 0.01,-39.3 h 15.6 l -0.01,34.8 c 0,4.7 1.7,7.2 7.6,7.2 4.5,0 8.3,-2.5 8.3,-8.3 l 0.01,-33.7 h 15.6 z"
           id="path262"
           inkscape:connector-curvature="0" /><path
           d="m 1248.11,451.85 c -3.1,-3.7 -9.8,-5.7 -14.7,-5.7 -3.9,0 -6.7,1.4 -6.7,4.1 0,9.1 31.5,1.61 31.5,21.51 0,14 -12.4,19 -24,19 -11.6,0 -18.2,-3.3 -26,-10.51 l 9.7,-8.4 c 4.8,4.6 9.7,7.5 16.8,7.5 2.6,0 8.5,-0.6 8.5,-5.4 0,-8.3 -31.5,-1.71 -31.5,-20.61 0,-13.4 11.7,-18.6 22.5,-18.6 8.2,0 16.3,2.9 23.5,7.7 z"
           id="path264"
           inkscape:connector-curvature="0" /><path
           d="m 1280.41,436.16 -0.01,53.2 h -15.6 l 0.01,-53.2 z m -15.6,-6.01 v -12 h 15.6 v 12 z"
           id="path266"
           inkscape:connector-curvature="0" /><path
           d="m 1290.11,436.16 h 15.6 v 4.7 c 4,-4.7 10.6,-6.1 15.4,-6.1 12.6,0 16.1,7.3 16.1,15.3 l -0.01,39.3 h -15.6 l 0.01,-33.3 c 0,-5.2 -1.6,-8.7 -7.6,-8.7 -6.3,0 -8.3,4.1 -8.3,8.9 l -0.01,33.1 h -15.6 z"
           id="path268"
           inkscape:connector-curvature="0" /><path
           d="m 1359.9,465.97 c 0.1,10.2 6.6,13.4 11.6,13.4 5.8,0 8.5,-3 13,-9.4 l 11.7,6.1 c -5.4,10 -13.9,14.7 -25.8,14.7 -16.5,0 -26.1,-11.41 -26.1,-26.41 0,-18.8 9.91,-29.6 26.11,-29.6 19.4,0 26,14.8 26.1,31.21 z m 21,-9.6 c -0.5,-7.8 -6.1,-10.2 -10.6,-10.2 -4.5,0 -9.9,3.2 -10.6,10.2 z"
           id="path270"
           inkscape:connector-curvature="0" /><path
           d="m 1439.4,451.88 c -3.1,-3.7 -9.8,-5.7 -14.7,-5.7 -3.9,0 -6.7,1.4 -6.7,4.1 0,9.1 31.5,1.61 31.5,21.51 0,14 -12.4,19 -24,19 -11.6,0 -18.2,-3.3 -26,-10.5 l 9.7,-8.4 c 4.8,4.6 9.7,7.5 16.8,7.5 2.6,0 8.5,-0.6 8.5,-5.4 0,-8.3 -31.5,-1.71 -31.5,-20.61 0,-13.4 11.7,-18.6 22.5,-18.6 8.2,0 16.3,2.9 23.5,7.7 z"
           id="path272"
           inkscape:connector-curvature="0" /><path
           d="m 1492.3,451.89 c -3.1,-3.7 -9.8,-5.7 -14.7,-5.7 -3.9,0 -6.7,1.4 -6.7,4.1 0,9.1 31.5,1.61 31.5,21.51 0,14 -12.4,19 -24,19 -11.6,0 -18.2,-3.3 -26,-10.5 l 9.7,-8.4 c 4.8,4.6 9.7,7.5 16.8,7.5 2.6,0 8.5,-0.6 8.5,-5.4 0,-8.3 -31.5,-1.7 -31.5,-20.61 0,-13.4 11.7,-18.6 22.5,-18.6 8.2,0 16.3,2.9 23.5,7.71 z"
           id="path274"
           inkscape:connector-curvature="0" /><path
           d="m 704.8,557.96 c 6.2,5.6 12.1,8.9 20.6,8.9 4.7,0 13.3,-2 13.3,-8.2 0,-3.6 -2.7,-5.4 -8,-6.3 l -14.8,-2.4 c -13.2,-2.1 -20.4,-9.1 -20.4,-19.61 0,-17.2 13.91,-24.3 29.11,-24.3 11.8,0 23.4,4.8 31.4,13.71 l -13.5,9.7 c -4.7,-5.7 -11.6,-9 -19.1,-9 -4.1,0 -10.1,2.6 -10.1,7.2 0,3.8 3.1,5.7 9.9,6.8 l 6.8,1.1 c 14.2,2.3 25.9,6.71 25.9,20.31 0,21.4 -19.31,25.4 -32.61,25.4 -12.1,0 -22.4,-3.9 -32.1,-14.51 z"
           id="path276"
           inkscape:connector-curvature="0" /><path
           d="m 799.7,543.98 c -2.8,-6 -7.6,-7.3 -10,-7.3 -8.9,0 -12.1,6.9 -12.1,16 0,9.1 3.8,16 12.1,16 4.8,0 8.6,-1.8 11.1,-7.8 l 11.2,5.7 c -4.8,8.5 -13.5,14.1 -23.7,14.1 -15.9,0 -26.9,-10.1 -26.9,-28.01 0,-17.6 11.71,-28 26.41,-28 10.1,0 18.8,3.7 23.9,13 z"
           id="path278"
           inkscape:connector-curvature="0" /><path
           d="m 818.2,508.08 h 15.6 v 23 h 0.2 c 3,-4.1 9.7,-6.4 14.6,-6.4 11.2,0 16.7,6.5 16.7,17.2 l -0.01,37.4 h -15.6 v -31.9 c 0,-8.2 -4.4,-10.1 -7.8,-10.1 -3.6,0 -8.1,2.3 -8.1,12.2 l -0.01,29.8 h -15.6 z"
           id="path280"
           inkscape:connector-curvature="0" /><path
           d="m 928.8,552.7 c 0,17.9 -11.71,28 -28.31,28 -16.6,0 -28.3,-10.11 -28.3,-28.01 0,-17.9 11.71,-28 28.31,-28 16.6,0 28.3,10.11 28.3,28.01 z m -41,-0.01 c 0,9.1 3.8,16 12.7,16 8.9,0 12.7,-6.9 12.7,-16.6 0,-8.5 -3.8,-15.4 -12.7,-15.4 -8.9,0 -12.7,6.9 -12.7,16 z"
           id="path282"
           inkscape:connector-curvature="0" /><path
           d="m 990.9,552.71 c 0,17.9 -11.71,28 -28.31,28 -16.6,0 -28.3,-10.11 -28.3,-28.01 0,-17.9 11.71,-28 28.31,-28 16.6,0.01 28.3,10.11 28.3,28.01 z m -41,-0.01 c 0,9.1 3.8,16 12.7,16 8.9,0 12.7,-6.9 12.7,-16.6 0,-8.5 -3.8,-15.4 -12.7,-15.4 -8.9,0 -12.7,6.9 -12.7,16 z"
           id="path284"
           inkscape:connector-curvature="0" /><path
           d="m 998.09,579.31 0.01,-71.2 h 15.6 l -0.01,71.2 z"
           id="path286"
           inkscape:connector-curvature="0" /><path
           class="st2"
           d="m 1079.69,581.12 c -18.3,0 -35.3,-11.91 -35.3,-37.21 0,-25.8 17.51,-37 35.61,-37 21.5,0 35.5,15.11 35.5,36.51 0,17.21 -9.41,37.71 -35.81,37.7 z m 0.5,-7.4 c 14,0 25.1,-9.4 25.11,-30.3 0,-14 -6.29,-28.9 -25.3,-28.91 -18.7,0 -25.4,14.8 -25.41,29.5 0,18.21 9.7,29.71 25.6,29.71 z"
           id="path288"
           inkscape:connector-curvature="0"
           style="fill:#a51033" /><path
           class="st2"
           d="m 1154.09,579.34 v -30.9 c 0,-7.3 -5.2,-10.2 -10.7,-10.2 -6.6,0 -12.5,4.8 -12.5,13.2 v 27.9 h -8 l 0.01,-47.1 h 8 v 6.9 c 2,-3.5 6.7,-8.4 14.8,-8.4 2.1,0 9.2,0.6 13.4,6.5 2.7,3.8 2.9,7.9 2.9,12.3 l -0.01,29.8 z"
           id="path290"
           inkscape:connector-curvature="0"
           style="fill:#a51033" /><path
           class="st2"
           d="m 1171.29,579.34 0.01,-70.6 h 7.6 l -0.01,70.6 z"
           id="path292"
           inkscape:connector-curvature="0"
           style="fill:#a51033" /><path
           class="st2"
           d="m 1188.29,579.34 0.01,-47.1 h 7.7 l -0.01,47.1 z m 0.01,-61.4 v -9.2 h 7.7 v 9.2 z"
           id="path294"
           inkscape:connector-curvature="0"
           style="fill:#a51033" /><path
           class="st2"
           d="m 1236.49,579.35 v -30.9 c 0,-7.3 -5.2,-10.2 -10.7,-10.2 -6.6,0 -12.5,4.8 -12.5,13.2 v 27.9 h -8 l 0.01,-47.1 h 8 v 6.9 c 2,-3.5 6.7,-8.4 14.8,-8.4 2.1,0 9.2,0.6 13.4,6.5 2.7,3.8 2.9,7.9 2.9,12.3 v 29.8 z"
           id="path296"
           inkscape:connector-curvature="0"
           style="fill:#a51033" /><path
           class="st2"
           d="m 1259.49,557.85 c 0,7.3 4,17 15.3,17 8.3,0 11.4,-6.7 12.4,-11 l 8.1,1.1 c -1.1,3.3 -5.5,15.9 -21.3,15.9 -11.6,0 -23.1,-6.9 -23.1,-25.5 0,-17.9 13,-24.6 22.81,-24.6 10.3,0 21.6,6.9 21.6,25.21 v 1.3 l -35.8,-0.01 v 0.6 z m 27.1,-6.39 c 0,-7.8 -5.5,-14.5 -13.5,-14.5 -8.5,0 -12.7,7 -13.4,14.5 z"
           id="path298"
           inkscape:connector-curvature="0"
           style="fill:#a51033" /></g></g></g></svg>